<svg width="219" height="830" viewBox="0 0 219 830" fill="none" xmlns="http://www.w3.org/2000/svg">
<mask id="mask0_272_285" style="mask-type:alpha" maskUnits="userSpaceOnUse" x="0" y="-1" width="219" height="831">
<path d="M32.7158 398.356C54.1474 376.782 79.8738 365.995 109.852 365.995C139.831 365.995 165.686 376.782 186.559 398.356C207.733 419.93 218.298 445.597 218.298 475.315C218.298 505.033 207.733 530.444 186.559 552.274C165.686 573.55 140.088 584.209 109.852 584.209C79.6161 584.209 54.1903 573.55 32.7158 552.274C11.542 530.444 0.976559 504.777 0.976558 475.315C0.976556 445.853 11.5849 419.887 32.7158 398.356ZM156.022 429.864C143.395 417.585 127.977 411.445 109.809 411.445C91.6418 411.445 76.5238 417.585 63.5961 429.864C50.6685 442.442 44.2261 457.578 44.2261 475.315C44.2262 493.052 50.6685 508.358 63.5961 520.339C76.5238 532.618 91.8995 538.758 109.809 538.758C127.719 538.758 143.352 532.618 156.022 520.339C168.692 508.06 175.006 493.052 175.006 475.315C175.006 457.578 168.692 442.442 156.022 429.864Z" fill="url(#paint0_linear_272_285)"/>
<path d="M63.2525 280.464C76.1802 292.743 91.427 298.883 109.036 298.883L218.341 298.883L218.341 344.334L109.036 344.334C79.3584 344.334 53.7608 333.547 32.3293 311.972C11.4561 290.953 0.976559 265.285 0.976558 235.013L0.976556 205.551L43.8826 205.551L43.8826 235.013C43.8826 253.049 50.3249 268.185 63.2525 280.464Z" fill="url(#paint1_linear_272_285)"/>
<path d="M33.1453 31.5072C54.3191 10.4874 79.8738 -0.00122415 109.852 -0.00122546C139.83 -0.00122677 164.999 10.53 186.172 31.5072C207.604 52.5271 218.341 77.64 218.341 106.846L218.341 187.088L0.976562 187.088L0.976559 106.846C0.976558 77.64 11.7138 52.5271 33.1453 31.5072ZM155.636 64.2521C149.322 57.6861 142.322 52.8682 134.591 49.7131C126.903 46.5579 118.657 45.023 109.852 45.023C101.048 45.023 92.6726 46.6006 84.6841 49.7131C76.6956 52.8682 69.566 57.5582 63.2525 63.8258C50.8832 76.6594 44.6986 91.7954 44.6986 109.276L44.6986 144.494L174.19 144.494L174.19 109.276C174.19 92.0938 168.005 77.0857 155.636 64.2521Z" fill="url(#paint2_linear_272_285)"/>
<path d="M52.5611 627.222C33.6636 647.815 24.1719 672.331 24.1719 700.77C24.1719 729.208 33.6206 753.724 52.5611 774.318C71.7164 794.655 94.694 804.846 121.451 804.846L218.344 804.846L218.344 761.825L121.451 761.825C105.259 761.825 91.4729 755.814 80.1773 743.833C68.624 732.363 62.8689 717.995 62.8689 700.812C62.8689 683.63 68.624 669.261 80.1773 657.792C92.203 645.811 105.947 639.799 121.451 639.799L218.344 639.799L218.344 633.574C218.344 613.279 201.766 596.779 181.279 596.779L121.451 596.779C94.694 596.779 71.7163 606.969 52.5611 627.307L52.5611 627.222Z" fill="url(#paint3_linear_272_285)"/>
<path d="M14.8061 743.198L0.976559 743.198L0.976562 829.409L78.5424 829.409L78.5424 816.149C41.7351 796.11 14.8061 743.198 14.8061 743.198Z" fill="url(#paint4_linear_272_285)"/>
</mask>
<g mask="url(#mask0_272_285)">
<rect x="-18.543" y="866.023" width="866.024" height="155.857" transform="rotate(-90 -18.543 866.023)" fill="url(#paint5_linear_272_285)"/>
</g>
<defs>
<linearGradient id="paint0_linear_272_285" x1="109.637" y1="365.995" x2="109.637" y2="584.209" gradientUnits="userSpaceOnUse">
<stop stop-color="#EB4A14"/>
<stop offset="1" stop-color="#852A0B" stop-opacity="0.3"/>
</linearGradient>
<linearGradient id="paint1_linear_272_285" x1="109.659" y1="205.551" x2="109.659" y2="344.334" gradientUnits="userSpaceOnUse">
<stop stop-color="#EB4A14"/>
<stop offset="1" stop-color="#852A0B" stop-opacity="0.3"/>
</linearGradient>
<linearGradient id="paint2_linear_272_285" x1="109.659" y1="-0.00122545" x2="109.659" y2="187.088" gradientUnits="userSpaceOnUse">
<stop stop-color="#EB4A14"/>
<stop offset="1" stop-color="#852A0B" stop-opacity="0.3"/>
</linearGradient>
<linearGradient id="paint3_linear_272_285" x1="121.258" y1="596.779" x2="121.258" y2="804.846" gradientUnits="userSpaceOnUse">
<stop stop-color="#EB4A14"/>
<stop offset="1" stop-color="#852A0B" stop-opacity="0.3"/>
</linearGradient>
<linearGradient id="paint4_linear_272_285" x1="39.7595" y1="743.198" x2="39.7595" y2="829.409" gradientUnits="userSpaceOnUse">
<stop stop-color="#EB4A14"/>
<stop offset="1" stop-color="#852A0B" stop-opacity="0.3"/>
</linearGradient>
<linearGradient id="paint5_linear_272_285" x1="847.481" y1="943.951" x2="-18.543" y2="943.951" gradientUnits="userSpaceOnUse">
<stop stop-color="#D9D9D9" stop-opacity="0"/>
<stop offset="1" stop-color="#191919"/>
</linearGradient>
</defs>
</svg>
