<svg width="1441" height="1025" viewBox="0 0 1441 1025" fill="none" xmlns="http://www.w3.org/2000/svg">
<g clip-path="url(#clip0_272_793)">
<rect width="1440" height="1024" transform="translate(0.148438 0.920898)" fill="#1E1E1E"/>
<path d="M356.881 556.286V547.286L348.288 533.005H353.038L357.241 540.177C357.834 541.177 358.397 542.192 358.944 543.208C359.491 542.192 360.038 541.177 360.616 540.177L364.725 533.005H369.459L360.944 547.286V556.286H356.881ZM374.569 556.661C369.71 556.661 366.429 553.177 366.429 548.052C366.429 542.927 369.71 539.411 374.569 539.411C379.429 539.411 382.71 542.927 382.71 548.052C382.71 553.177 379.429 556.661 374.569 556.661ZM374.569 553.364C377.101 553.364 378.71 551.333 378.71 548.052C378.71 544.755 377.085 542.708 374.569 542.708C372.038 542.708 370.413 544.739 370.413 548.052C370.413 551.349 372.023 553.364 374.569 553.364ZM390.679 556.614C387.226 556.614 384.804 554.333 384.804 550.099V539.786H388.742V549.474C388.742 551.896 389.961 553.161 392.07 553.161C394.148 553.161 395.679 551.927 395.679 549.114V539.786H399.633V556.286H395.758V553.755C394.633 555.614 392.961 556.614 390.679 556.614ZM402.508 556.286V539.786H406.305V542.521H406.352C406.961 540.63 408.227 539.63 410.352 539.63C410.883 539.63 411.321 539.661 411.633 539.692V543.192C411.336 543.146 410.555 543.067 409.774 543.067C407.899 543.067 406.446 544.364 406.446 546.942V556.286H402.508ZM420.072 556.286V533.005H424.525L432.697 545.989C433.244 546.864 434.275 548.646 435.197 550.302C435.134 548.552 435.103 546.614 435.103 545.692V533.005H439.244V556.286H434.775L427.4 544.599C426.744 543.552 425.509 541.489 424.088 538.974C424.181 541.567 424.197 543.567 424.197 544.583V556.286H420.072ZM449.682 556.661C444.823 556.661 441.541 553.177 441.541 548.052C441.541 542.927 444.823 539.411 449.682 539.411C454.541 539.411 457.823 542.927 457.823 548.052C457.823 553.177 454.541 556.661 449.682 556.661ZM449.682 553.364C452.213 553.364 453.823 551.333 453.823 548.052C453.823 544.755 452.198 542.708 449.682 542.708C447.151 542.708 445.526 544.739 445.526 548.052C445.526 551.349 447.135 553.364 449.682 553.364ZM459.917 556.286V539.786H463.714V542.521H463.761C464.37 540.63 465.636 539.63 467.761 539.63C468.292 539.63 468.729 539.661 469.042 539.692V543.192C468.745 543.146 467.964 543.067 467.183 543.067C465.308 543.067 463.854 544.364 463.854 546.942V556.286H459.917ZM476.839 556.614C472.527 556.614 469.699 553.161 469.699 548.021C469.699 542.942 472.574 539.458 476.808 539.458C478.949 539.458 480.714 540.317 481.777 542.13H481.808V533.005H485.746V556.286H481.871V553.771H481.839C480.808 555.677 478.996 556.614 476.839 556.614ZM477.761 553.317C480.339 553.317 482.027 551.239 482.027 548.021C482.027 544.817 480.339 542.724 477.761 542.724C475.324 542.724 473.683 544.614 473.683 548.021C473.683 551.442 475.324 553.317 477.761 553.317ZM498.841 556.286L493.747 539.786H497.888L499.591 546.052C500.106 548.021 500.575 550.13 501.075 552.177C501.591 550.13 502.091 548.021 502.638 546.052L504.388 539.786H508.028L509.763 546.052C510.294 548.005 510.794 550.099 511.309 552.146C511.778 550.099 512.263 548.005 512.778 546.052L514.481 539.786H518.669L513.559 556.286H509.466L507.466 549.411C507.028 547.88 506.622 546.271 506.2 544.661C505.794 546.271 505.388 547.88 504.934 549.411L502.903 556.286H498.841ZM524.826 556.552C521.544 556.552 519.123 554.896 519.123 551.599C519.123 547.849 522.201 546.927 525.607 546.567C528.669 546.224 529.716 546.177 529.716 545.052V544.927C529.716 543.521 528.591 542.521 526.701 542.521C524.779 542.521 523.498 543.521 523.388 544.911H519.591C519.779 541.63 522.466 539.458 526.779 539.458C531.076 539.458 533.623 541.599 533.623 545.036V556.286H529.748V553.958H529.685C528.904 555.427 527.513 556.552 524.826 556.552ZM525.794 553.63C528.373 553.63 529.732 552.099 529.732 550.177V548.396C529.248 548.708 527.716 548.958 526.091 549.208C524.404 549.458 522.966 550.067 522.966 551.567C522.966 552.864 524.076 553.63 525.794 553.63ZM536.467 556.286V539.786H540.264V542.521H540.311C540.92 540.63 542.186 539.63 544.311 539.63C544.842 539.63 545.279 539.661 545.592 539.692V543.192C545.295 543.146 544.514 543.067 543.733 543.067C541.858 543.067 540.404 544.364 540.404 546.942V556.286H536.467ZM547.421 556.286V539.786H551.218V542.521H551.264C551.874 540.63 553.139 539.63 555.264 539.63C555.796 539.63 556.233 539.661 556.546 539.692V543.192C556.249 543.146 555.468 543.067 554.686 543.067C552.811 543.067 551.358 544.364 551.358 546.942V556.286H547.421ZM562.906 556.552C559.624 556.552 557.203 554.896 557.203 551.599C557.203 547.849 560.281 546.927 563.687 546.567C566.749 546.224 567.796 546.177 567.796 545.052V544.927C567.796 543.521 566.671 542.521 564.781 542.521C562.859 542.521 561.578 543.521 561.468 544.911H557.671C557.859 541.63 560.546 539.458 564.859 539.458C569.156 539.458 571.703 541.599 571.703 545.036V556.286H567.828V553.958H567.765C566.984 555.427 565.593 556.552 562.906 556.552ZM563.874 553.63C566.453 553.63 567.812 552.099 567.812 550.177V548.396C567.328 548.708 565.796 548.958 564.171 549.208C562.484 549.458 561.046 550.067 561.046 551.567C561.046 552.864 562.156 553.63 563.874 553.63ZM578.484 546.958V556.286H574.547V539.786H578.422V542.317C579.547 540.458 581.219 539.458 583.484 539.458C586.938 539.458 589.375 541.739 589.375 545.974V556.286H585.422V546.599C585.422 544.177 584.203 542.911 582.094 542.911C580.031 542.911 578.484 544.146 578.484 546.958ZM600.954 539.786V542.958H597.594V551.552C597.594 552.724 597.985 553.114 599.266 553.114H600.954V556.286H598.579C595.219 556.286 593.641 554.958 593.641 552.13V542.958H590.766V539.786H593.641V535.286H597.594V539.786H600.954ZM603.939 562.817V559.614H605.892C606.954 559.614 607.454 559.083 607.923 557.786L608.533 556.192L602.173 539.786H606.345L609.376 548.38C609.783 549.599 610.189 550.817 610.564 552.036C610.939 550.817 611.329 549.599 611.751 548.38L614.767 539.786H618.892L611.517 559.005C610.533 561.583 608.908 562.817 606.517 562.817H603.939ZM630.518 556.286L625.424 539.786H629.565L631.268 546.052C631.784 548.021 632.253 550.13 632.753 552.177C633.268 550.13 633.768 548.021 634.315 546.052L636.065 539.786H639.706L641.44 546.052C641.971 548.005 642.471 550.099 642.987 552.146C643.456 550.099 643.94 548.005 644.456 546.052L646.159 539.786H650.346L645.237 556.286H641.143L639.143 549.411C638.706 547.88 638.299 546.271 637.878 544.661C637.471 546.271 637.065 547.88 636.612 549.411L634.581 556.286H630.518ZM651.753 556.286V539.786H655.691V556.286H651.753ZM653.722 537.333C652.378 537.333 651.363 536.364 651.363 535.083C651.363 533.817 652.378 532.849 653.722 532.849C655.066 532.849 656.081 533.817 656.081 535.083C656.081 536.364 655.066 537.333 653.722 537.333ZM662.488 533.005V556.286H658.551V533.005H662.488ZM669.286 533.005V556.286H665.348V533.005H669.286ZM687.662 556.614C685.506 556.614 683.693 555.677 682.662 553.771H682.631V556.286H678.756V533.005H682.693V542.13H682.724C683.787 540.317 685.537 539.458 687.678 539.458C691.928 539.458 694.803 542.942 694.803 548.021C694.803 553.161 691.974 556.614 687.662 556.614ZM686.74 553.317C689.178 553.317 690.818 551.442 690.818 548.021C690.818 544.614 689.178 542.724 686.74 542.724C684.162 542.724 682.474 544.817 682.474 548.021C682.474 551.239 684.162 553.317 686.74 553.317ZM704.178 556.661C699.225 556.661 696.131 553.052 696.131 548.052C696.131 543.036 699.397 539.411 704.022 539.411C708.772 539.411 711.928 542.927 711.928 547.989V549.067H699.991C700.084 551.755 701.616 553.552 704.272 553.552C706.256 553.552 707.584 552.599 708.038 551.192H711.725C711.1 554.427 708.038 556.661 704.178 556.661ZM700.022 546.349H708.147C707.897 543.989 706.366 542.536 704.084 542.536C701.803 542.536 700.288 543.989 700.022 546.349ZM862.779 556.677C858.764 556.677 855.779 554.739 855.529 551.192H859.42C859.592 552.802 860.748 553.724 862.717 553.724C864.623 553.724 865.779 552.896 865.779 551.724C865.779 550.724 864.92 550.146 863.529 549.849L860.717 549.271C857.561 548.614 855.904 547.005 855.904 544.505C855.904 541.474 858.514 539.427 862.545 539.427C866.545 539.427 869.279 541.536 869.373 544.927H865.67C865.639 543.458 864.436 542.38 862.639 542.38C860.904 542.38 859.842 543.255 859.842 544.38C859.842 545.364 860.654 545.974 862.029 546.271L864.998 546.88C868.264 547.567 869.779 549.005 869.779 551.427C869.779 554.646 866.858 556.677 862.779 556.677ZM879.202 556.661C874.343 556.661 871.061 553.177 871.061 548.052C871.061 542.927 874.343 539.411 879.202 539.411C884.061 539.411 887.343 542.927 887.343 548.052C887.343 553.177 884.061 556.661 879.202 556.661ZM879.202 553.364C881.733 553.364 883.343 551.333 883.343 548.052C883.343 544.755 881.718 542.708 879.202 542.708C876.671 542.708 875.046 544.739 875.046 548.052C875.046 551.349 876.655 553.364 879.202 553.364ZM896.812 556.661C891.953 556.661 888.671 553.177 888.671 548.052C888.671 542.927 891.953 539.411 896.812 539.411C901.671 539.411 904.953 542.927 904.953 548.052C904.953 553.177 901.671 556.661 896.812 556.661ZM896.812 553.364C899.343 553.364 900.953 551.333 900.953 548.052C900.953 544.755 899.328 542.708 896.812 542.708C894.281 542.708 892.656 544.739 892.656 548.052C892.656 551.349 894.265 553.364 896.812 553.364ZM910.984 546.958V556.286H907.047V539.786H910.922V542.317C912.047 540.458 913.719 539.458 915.984 539.458C919.438 539.458 921.875 541.739 921.875 545.974V556.286H917.922V546.599C917.922 544.177 916.703 542.911 914.594 542.911C912.531 542.911 910.984 544.146 910.984 546.958ZM936.392 556.552C933.111 556.552 930.689 554.896 930.689 551.599C930.689 547.849 933.767 546.927 937.173 546.567C940.236 546.224 941.283 546.177 941.283 545.052V544.927C941.283 543.521 940.158 542.521 938.267 542.521C936.345 542.521 935.064 543.521 934.954 544.911H931.158C931.345 541.63 934.033 539.458 938.345 539.458C942.642 539.458 945.189 541.599 945.189 545.036V556.286H941.314V553.958H941.251C940.47 555.427 939.079 556.552 936.392 556.552ZM937.361 553.63C939.939 553.63 941.298 552.099 941.298 550.177V548.396C940.814 548.708 939.283 548.958 937.658 549.208C935.97 549.458 934.533 550.067 934.533 551.567C934.533 552.864 935.642 553.63 937.361 553.63ZM956.83 539.786V542.958H953.471V556.286H949.518V542.958H946.549V539.786H949.518V537.38C949.518 534.536 951.268 533.005 954.533 533.005H956.83V536.177H955.314C953.971 536.177 953.471 536.692 953.471 538.036V539.786H956.83ZM966.003 539.786V542.958H962.643V551.552C962.643 552.724 963.034 553.114 964.315 553.114H966.003V556.286H963.628C960.268 556.286 958.69 554.958 958.69 552.13V542.958H955.815V539.786H958.69V535.286H962.643V539.786H966.003ZM974.878 556.661C969.925 556.661 966.831 553.052 966.831 548.052C966.831 543.036 970.097 539.411 974.722 539.411C979.472 539.411 982.628 542.927 982.628 547.989V549.067H970.691C970.784 551.755 972.316 553.552 974.972 553.552C976.956 553.552 978.284 552.599 978.738 551.192H982.425C981.8 554.427 978.738 556.661 974.878 556.661ZM970.722 546.349H978.847C978.597 543.989 977.066 542.536 974.784 542.536C972.503 542.536 970.988 543.989 970.722 546.349ZM984.676 556.286V539.786H988.473V542.521H988.519C989.129 540.63 990.394 539.63 992.519 539.63C993.051 539.63 993.488 539.661 993.801 539.692V543.192C993.504 543.146 992.723 543.067 991.941 543.067C990.066 543.067 988.613 544.364 988.613 546.942V556.286H984.676ZM1002.05 556.286V539.786H1005.85V542.521H1005.9C1006.51 540.63 1007.77 539.63 1009.9 539.63C1010.43 539.63 1010.86 539.661 1011.18 539.692V543.192C1010.88 543.146 1010.1 543.067 1009.32 543.067C1007.44 543.067 1005.99 544.364 1005.99 546.942V556.286H1002.05ZM1019.88 556.661C1014.93 556.661 1011.83 553.052 1011.83 548.052C1011.83 543.036 1015.1 539.411 1019.72 539.411C1024.47 539.411 1027.63 542.927 1027.63 547.989V549.067H1015.69C1015.79 551.755 1017.32 553.552 1019.97 553.552C1021.96 553.552 1023.29 552.599 1023.74 551.192H1027.43C1026.8 554.427 1023.74 556.661 1019.88 556.661ZM1015.72 546.349H1023.85C1023.6 543.989 1022.07 542.536 1019.79 542.536C1017.51 542.536 1015.99 543.989 1015.72 546.349ZM1033.82 556.286L1027.62 539.786H1031.79L1034.8 548.38C1035.23 549.677 1035.63 550.989 1036.04 552.286C1036.43 550.989 1036.82 549.677 1037.24 548.38L1040.21 539.786H1044.33L1038.13 556.286H1033.82ZM1045.73 556.286V539.786H1049.66V556.286H1045.73ZM1047.69 537.333C1046.35 537.333 1045.34 536.364 1045.34 535.083C1045.34 533.817 1046.35 532.849 1047.69 532.849C1049.04 532.849 1050.05 533.817 1050.05 535.083C1050.05 536.364 1049.04 537.333 1047.69 537.333ZM1059.8 556.661C1054.85 556.661 1051.76 553.052 1051.76 548.052C1051.76 543.036 1055.02 539.411 1059.65 539.411C1064.4 539.411 1067.55 542.927 1067.55 547.989V549.067H1055.62C1055.71 551.755 1057.24 553.552 1059.9 553.552C1061.88 553.552 1063.21 552.599 1063.66 551.192H1067.35C1066.73 554.427 1063.66 556.661 1059.8 556.661ZM1055.65 546.349H1063.77C1063.52 543.989 1061.99 542.536 1059.71 542.536C1057.43 542.536 1055.91 543.989 1055.65 546.349ZM1072.73 556.286L1067.63 539.786H1071.77L1073.48 546.052C1073.99 548.021 1074.46 550.13 1074.96 552.177C1075.48 550.13 1075.98 548.021 1076.52 546.052L1078.27 539.786H1081.91L1083.65 546.052C1084.18 548.005 1084.68 550.099 1085.2 552.146C1085.66 550.099 1086.15 548.005 1086.66 546.052L1088.37 539.786H1092.56L1087.45 556.286H1083.35L1081.35 549.411C1080.91 547.88 1080.51 546.271 1080.09 544.661C1079.68 546.271 1079.27 547.88 1078.82 549.411L1076.79 556.286H1072.73ZM329.193 593.286L324.099 576.786H328.24L329.943 583.052C330.459 585.021 330.928 587.13 331.428 589.177C331.943 587.13 332.443 585.021 332.99 583.052L334.74 576.786H338.381L340.115 583.052C340.646 585.005 341.146 587.099 341.662 589.146C342.131 587.099 342.615 585.005 343.131 583.052L344.834 576.786H349.021L343.912 593.286H339.818L337.818 586.411C337.381 584.88 336.974 583.271 336.553 581.661C336.146 583.271 335.74 584.88 335.287 586.411L333.256 593.286H329.193ZM350.428 593.286V576.786H354.366V593.286H350.428ZM352.397 574.333C351.053 574.333 350.038 573.364 350.038 572.083C350.038 570.817 351.053 569.849 352.397 569.849C353.741 569.849 354.756 570.817 354.756 572.083C354.756 573.364 353.741 574.333 352.397 574.333ZM366.179 576.786V579.958H362.819V588.552C362.819 589.724 363.21 590.114 364.491 590.114H366.179V593.286H363.804C360.444 593.286 358.866 591.958 358.866 589.13V579.958H355.991V576.786H358.866V572.286H362.819V576.786H366.179ZM371.961 583.958V593.286H368.023V570.005H371.961V579.208C373.086 577.411 374.742 576.458 376.961 576.458C380.414 576.458 382.851 578.739 382.851 582.974V593.286H378.898V583.599C378.898 581.177 377.679 579.911 375.57 579.911C373.508 579.911 371.961 581.146 371.961 583.958ZM385.727 593.286V576.786H389.664V593.286H385.727ZM387.696 574.333C386.352 574.333 385.336 573.364 385.336 572.083C385.336 570.817 386.352 569.849 387.696 569.849C389.039 569.849 390.055 570.817 390.055 572.083C390.055 573.364 389.039 574.333 387.696 574.333ZM396.462 583.958V593.286H392.524V576.786H396.399V579.317C397.524 577.458 399.196 576.458 401.462 576.458C404.915 576.458 407.353 578.739 407.353 582.974V593.286H403.399V583.599C403.399 581.177 402.181 579.911 400.071 579.911C398.009 579.911 396.462 581.146 396.462 583.958ZM417.416 593.286L427.416 573.521V573.505H415.807V570.005H431.588V573.521L421.651 593.286H417.416ZM432.964 593.286V590.146L441.417 582.755C443.776 580.661 445.214 579.271 445.214 577.005C445.214 574.567 443.636 573.036 441.12 573.036C438.401 573.036 436.776 574.864 436.776 577.849H432.948C432.948 572.927 436.136 569.63 441.12 569.63C445.761 569.63 449.089 572.489 449.089 576.817C449.089 579.989 447.276 582.192 443.964 585.083L438.589 589.849V589.88H449.198V593.286H432.964ZM462.106 583.958V593.286H458.168V570.005H462.106V579.208C463.231 577.411 464.887 576.458 467.106 576.458C470.559 576.458 472.996 578.739 472.996 582.974V593.286H469.043V583.599C469.043 581.177 467.824 579.911 465.715 579.911C463.653 579.911 462.106 581.146 462.106 583.958ZM483.247 593.661C478.388 593.661 475.106 590.177 475.106 585.052C475.106 579.927 478.388 576.411 483.247 576.411C488.106 576.411 491.388 579.927 491.388 585.052C491.388 590.177 488.106 593.661 483.247 593.661ZM483.247 590.364C485.778 590.364 487.388 588.333 487.388 585.052C487.388 581.755 485.763 579.708 483.247 579.708C480.716 579.708 479.091 581.739 479.091 585.052C479.091 588.349 480.7 590.364 483.247 590.364ZM499.357 593.614C495.904 593.614 493.482 591.333 493.482 587.099V576.786H497.419V586.474C497.419 588.896 498.638 590.161 500.748 590.161C502.826 590.161 504.357 588.927 504.357 586.114V576.786H508.31V593.286H504.435V590.755C503.31 592.614 501.638 593.614 499.357 593.614ZM511.186 593.286V576.786H514.983V579.521H515.029C515.639 577.63 516.904 576.63 519.029 576.63C519.561 576.63 519.998 576.661 520.311 576.692V580.192C520.014 580.146 519.233 580.067 518.451 580.067C516.576 580.067 515.123 581.364 515.123 583.942V593.286H511.186ZM528.421 593.677C524.405 593.677 521.421 591.739 521.171 588.192H525.061C525.233 589.802 526.389 590.724 528.358 590.724C530.264 590.724 531.421 589.896 531.421 588.724C531.421 587.724 530.561 587.146 529.171 586.849L526.358 586.271C523.202 585.614 521.546 584.005 521.546 581.505C521.546 578.474 524.155 576.427 528.186 576.427C532.186 576.427 534.921 578.536 535.014 581.927H531.311C531.28 580.458 530.077 579.38 528.28 579.38C526.546 579.38 525.483 580.255 525.483 581.38C525.483 582.364 526.296 582.974 527.671 583.271L530.639 583.88C533.905 584.567 535.421 586.005 535.421 588.427C535.421 591.646 532.499 593.677 528.421 593.677ZM539.499 593.567C538.156 593.567 537.078 592.489 537.078 591.146C537.078 589.802 538.156 588.724 539.499 588.724C540.843 588.724 541.921 589.802 541.921 591.146C541.921 592.489 540.843 593.567 539.499 593.567ZM558.391 593.286H550.532V570.005H558.563C565.485 570.005 569.782 574.458 569.782 581.614C569.782 588.817 565.516 593.286 558.391 593.286ZM554.657 589.755H558.173C563.235 589.755 565.61 586.786 565.61 581.614C565.61 576.489 563.204 573.536 558.298 573.536H554.657V589.755ZM572.017 593.286V576.786H575.814V579.521H575.861C576.47 577.63 577.736 576.63 579.861 576.63C580.392 576.63 580.829 576.661 581.142 576.692V580.192C580.845 580.146 580.064 580.067 579.283 580.067C577.408 580.067 575.954 581.364 575.954 583.942V593.286H572.017ZM582.908 593.286V576.786H586.846V593.286H582.908ZM584.877 574.333C583.533 574.333 582.518 573.364 582.518 572.083C582.518 570.817 583.533 569.849 584.877 569.849C586.221 569.849 587.236 570.817 587.236 572.083C587.236 573.364 586.221 574.333 584.877 574.333ZM594.44 593.286L588.237 576.786H592.409L595.424 585.38C595.846 586.677 596.253 587.989 596.659 589.286C597.049 587.989 597.44 586.677 597.862 585.38L600.831 576.786H604.956L598.753 593.286H594.44ZM613.034 593.661C608.081 593.661 604.988 590.052 604.988 585.052C604.988 580.036 608.253 576.411 612.878 576.411C617.628 576.411 620.784 579.927 620.784 584.989V586.067H608.847C608.941 588.755 610.472 590.552 613.128 590.552C615.113 590.552 616.441 589.599 616.894 588.192H620.581C619.956 591.427 616.894 593.661 613.034 593.661ZM608.878 583.349H617.003C616.753 580.989 615.222 579.536 612.941 579.536C610.659 579.536 609.144 580.989 608.878 583.349ZM633.067 593.286L627.973 576.786H632.114L633.817 583.052C634.333 585.021 634.801 587.13 635.301 589.177C635.817 587.13 636.317 585.021 636.864 583.052L638.614 576.786H642.254L643.989 583.052C644.52 585.005 645.02 587.099 645.536 589.146C646.004 587.099 646.489 585.005 647.004 583.052L648.708 576.786H652.895L647.786 593.286H643.692L641.692 586.411C641.254 584.88 640.848 583.271 640.426 581.661C640.02 583.271 639.614 584.88 639.161 586.411L637.129 593.286H633.067ZM654.302 593.286V576.786H658.239V593.286H654.302ZM656.271 574.333C654.927 574.333 653.911 573.364 653.911 572.083C653.911 570.817 654.927 569.849 656.271 569.849C657.614 569.849 658.63 570.817 658.63 572.083C658.63 573.364 657.614 574.333 656.271 574.333ZM670.053 576.786V579.958H666.693V588.552C666.693 589.724 667.084 590.114 668.365 590.114H670.053V593.286H667.678C664.318 593.286 662.74 591.958 662.74 589.13V579.958H659.865V576.786H662.74V572.286H666.693V576.786H670.053ZM675.834 583.958V593.286H671.897V570.005H675.834V579.208C676.959 577.411 678.616 576.458 680.834 576.458C684.288 576.458 686.725 578.739 686.725 582.974V593.286H682.772V583.599C682.772 581.177 681.553 579.911 679.444 579.911C677.381 579.911 675.834 581.146 675.834 583.958ZM703.508 593.661C698.679 593.661 695.445 590.146 695.445 585.052C695.445 579.958 698.679 576.411 703.508 576.411C707.648 576.411 710.648 579.021 710.992 582.692H707.133C706.836 580.927 705.601 579.692 703.554 579.692C700.976 579.692 699.429 581.786 699.429 585.052C699.429 588.302 700.961 590.38 703.554 590.38C705.617 590.38 706.726 589.192 707.101 587.364H710.992C710.711 590.974 707.679 593.661 703.508 593.661ZM720.383 593.661C715.524 593.661 712.243 590.177 712.243 585.052C712.243 579.927 715.524 576.411 720.383 576.411C725.243 576.411 728.524 579.927 728.524 585.052C728.524 590.177 725.243 593.661 720.383 593.661ZM720.383 590.364C722.914 590.364 724.524 588.333 724.524 585.052C724.524 581.755 722.899 579.708 720.383 579.708C717.852 579.708 716.227 581.739 716.227 585.052C716.227 588.349 717.836 590.364 720.383 590.364ZM734.556 583.958V593.286H730.618V576.786H734.493V579.317C735.618 577.458 737.29 576.458 739.556 576.458C743.009 576.458 745.446 578.739 745.446 582.974V593.286H741.493V583.599C741.493 581.177 740.274 579.911 738.165 579.911C736.103 579.911 734.556 581.146 734.556 583.958ZM757.119 576.786V579.958H753.759V593.286H749.806V579.958H746.838V576.786H749.806V574.38C749.806 571.536 751.556 570.005 754.822 570.005H757.119V573.177H755.603C754.259 573.177 753.759 573.692 753.759 575.036V576.786H757.119ZM758.869 593.286V576.786H762.807V593.286H758.869ZM760.838 574.333C759.494 574.333 758.479 573.364 758.479 572.083C758.479 570.817 759.494 569.849 760.838 569.849C762.182 569.849 763.198 570.817 763.198 572.083C763.198 573.364 762.182 574.333 760.838 574.333ZM772.042 593.614C767.729 593.614 764.901 590.161 764.901 585.021C764.901 579.942 767.776 576.458 772.011 576.458C774.151 576.458 775.917 577.317 776.979 579.13H777.011V570.005H780.948V593.286H777.073V590.771H777.042C776.011 592.677 774.198 593.614 772.042 593.614ZM772.964 590.317C775.542 590.317 777.229 588.239 777.229 585.021C777.229 581.817 775.542 579.724 772.964 579.724C770.526 579.724 768.886 581.614 768.886 585.021C768.886 588.442 770.526 590.317 772.964 590.317ZM791.089 593.661C786.136 593.661 783.043 590.052 783.043 585.052C783.043 580.036 786.308 576.411 790.933 576.411C795.683 576.411 798.839 579.927 798.839 584.989V586.067H786.902C786.996 588.755 788.527 590.552 791.183 590.552C793.168 590.552 794.496 589.599 794.949 588.192H798.636C798.011 591.427 794.949 593.661 791.089 593.661ZM786.933 583.349H795.058C794.808 580.989 793.277 579.536 790.996 579.536C788.714 579.536 787.199 580.989 786.933 583.349ZM804.824 583.958V593.286H800.887V576.786H804.762V579.317C805.887 577.458 807.559 576.458 809.824 576.458C813.278 576.458 815.715 578.739 815.715 582.974V593.286H811.762V583.599C811.762 581.177 810.543 579.911 808.434 579.911C806.371 579.911 804.824 581.146 804.824 583.958ZM825.888 593.661C821.059 593.661 817.825 590.146 817.825 585.052C817.825 579.958 821.059 576.411 825.888 576.411C830.028 576.411 833.028 579.021 833.372 582.692H829.513C829.216 580.927 827.981 579.692 825.934 579.692C823.356 579.692 821.809 581.786 821.809 585.052C821.809 588.302 823.341 590.38 825.934 590.38C827.997 590.38 829.106 589.192 829.481 587.364H833.372C833.091 590.974 830.059 593.661 825.888 593.661ZM842.669 593.661C837.716 593.661 834.623 590.052 834.623 585.052C834.623 580.036 837.888 576.411 842.513 576.411C847.263 576.411 850.419 579.927 850.419 584.989V586.067H838.482C838.576 588.755 840.107 590.552 842.763 590.552C844.748 590.552 846.076 589.599 846.529 588.192H850.216C849.591 591.427 846.529 593.661 842.669 593.661ZM838.513 583.349H846.638C846.388 580.989 844.857 579.536 842.576 579.536C840.294 579.536 838.779 580.989 838.513 583.349ZM859.077 593.286V570.005H863.014V583.474H863.061L869.483 576.786H874.218L867.514 583.911L874.624 593.286H869.921L864.514 586.224L863.014 587.771V593.286H859.077ZM879.531 583.958V593.286H875.593V576.786H879.468V579.317C880.593 577.458 882.265 576.458 884.531 576.458C887.984 576.458 890.421 578.739 890.421 582.974V593.286H886.468V583.599C886.468 581.177 885.25 579.911 883.14 579.911C881.078 579.911 879.531 581.146 879.531 583.958ZM900.672 593.661C895.813 593.661 892.531 590.177 892.531 585.052C892.531 579.927 895.813 576.411 900.672 576.411C905.531 576.411 908.813 579.927 908.813 585.052C908.813 590.177 905.531 593.661 900.672 593.661ZM900.672 590.364C903.203 590.364 904.813 588.333 904.813 585.052C904.813 581.755 903.188 579.708 900.672 579.708C898.141 579.708 896.516 581.739 896.516 585.052C896.516 588.349 898.125 590.364 900.672 590.364ZM914.032 593.286L908.938 576.786H913.079L914.782 583.052C915.298 585.021 915.766 587.13 916.266 589.177C916.782 587.13 917.282 585.021 917.829 583.052L919.579 576.786H923.219L924.954 583.052C925.485 585.005 925.985 587.099 926.501 589.146C926.969 587.099 927.454 585.005 927.969 583.052L929.673 576.786H933.86L928.751 593.286H924.657L922.657 586.411C922.219 584.88 921.813 583.271 921.391 581.661C920.985 583.271 920.579 584.88 920.126 586.411L918.094 593.286H914.032ZM935.267 593.286V576.786H939.204V593.286H935.267ZM937.236 574.333C935.892 574.333 934.876 573.364 934.876 572.083C934.876 570.817 935.892 569.849 937.236 569.849C938.579 569.849 939.595 570.817 939.595 572.083C939.595 573.364 938.579 574.333 937.236 574.333ZM946.002 583.958V593.286H942.064V576.786H945.939V579.317C947.064 577.458 948.736 576.458 951.002 576.458C954.455 576.458 956.893 578.739 956.893 582.974V593.286H952.939V583.599C952.939 581.177 951.721 579.911 949.611 579.911C947.549 579.911 946.002 581.146 946.002 583.958ZM967.253 600.036C962.893 600.036 960.253 598.021 959.815 594.817H963.674C964.049 596.239 965.409 596.989 967.253 596.989C969.721 596.989 971.143 595.63 971.143 593.099V590.583H971.128C970.065 592.521 968.315 593.396 966.143 593.396C961.831 593.396 959.003 589.927 959.003 584.958C959.003 579.942 961.878 576.458 966.112 576.458C968.253 576.458 970.049 577.349 971.143 579.239H971.159V576.786H975.049V592.864C975.049 597.974 971.721 600.036 967.253 600.036ZM967.065 590.146C969.643 590.146 971.331 588.083 971.331 584.911C971.331 581.739 969.643 579.677 967.065 579.677C964.628 579.677 962.987 581.552 962.987 584.911C962.987 588.286 964.628 590.146 967.065 590.146ZM988.144 593.286L983.051 576.786H987.191L988.894 583.052C989.41 585.021 989.879 587.13 990.379 589.177C990.894 587.13 991.394 585.021 991.941 583.052L993.691 576.786H997.332L999.066 583.052C999.598 585.005 1000.1 587.099 1000.61 589.146C1001.08 587.099 1001.57 585.005 1002.08 583.052L1003.79 576.786H1007.97L1002.86 593.286H998.769L996.769 586.411C996.332 584.88 995.926 583.271 995.504 581.661C995.098 583.271 994.691 584.88 994.238 586.411L992.207 593.286H988.144ZM1016.16 593.661C1011.21 593.661 1008.11 590.052 1008.11 585.052C1008.11 580.036 1011.38 576.411 1016 576.411C1020.75 576.411 1023.91 579.927 1023.91 584.989V586.067H1011.97C1012.07 588.755 1013.6 590.552 1016.25 590.552C1018.24 590.552 1019.57 589.599 1020.02 588.192H1023.71C1023.08 591.427 1020.02 593.661 1016.16 593.661ZM1012 583.349H1020.13C1019.88 580.989 1018.35 579.536 1016.07 579.536C1013.79 579.536 1012.27 580.989 1012 583.349ZM1024.74 578.333L1025.97 570.005H1029.86L1027.54 578.333H1024.74ZM1036.93 593.286L1030.72 576.786H1034.9L1037.91 585.38C1038.33 586.677 1038.74 587.989 1039.15 589.286C1039.54 587.989 1039.93 586.677 1040.35 585.38L1043.32 576.786H1047.44L1041.24 593.286H1036.93ZM1055.52 593.661C1050.57 593.661 1047.48 590.052 1047.48 585.052C1047.48 580.036 1050.74 576.411 1055.37 576.411C1060.12 576.411 1063.27 579.927 1063.27 584.989V586.067H1051.33C1051.43 588.755 1052.96 590.552 1055.62 590.552C1057.6 590.552 1058.93 589.599 1059.38 588.192H1063.07C1062.44 591.427 1059.38 593.661 1055.52 593.661ZM1051.37 583.349H1059.49C1059.24 580.989 1057.71 579.536 1055.43 579.536C1053.15 579.536 1051.63 580.989 1051.37 583.349ZM1079.41 600.036C1075.05 600.036 1072.41 598.021 1071.98 594.817H1075.84C1076.21 596.239 1077.57 596.989 1079.41 596.989C1081.88 596.989 1083.3 595.63 1083.3 593.099V590.583H1083.29C1082.23 592.521 1080.48 593.396 1078.3 593.396C1073.99 593.396 1071.16 589.927 1071.16 584.958C1071.16 579.942 1074.04 576.458 1078.27 576.458C1080.41 576.458 1082.21 577.349 1083.3 579.239H1083.32V576.786H1087.21V592.864C1087.21 597.974 1083.88 600.036 1079.41 600.036ZM1079.23 590.146C1081.8 590.146 1083.49 588.083 1083.49 584.911C1083.49 581.739 1081.8 579.677 1079.23 579.677C1076.79 579.677 1075.15 581.552 1075.15 584.911C1075.15 588.286 1076.79 590.146 1079.23 590.146ZM1097.45 593.661C1092.59 593.661 1089.31 590.177 1089.31 585.052C1089.31 579.927 1092.59 576.411 1097.45 576.411C1102.31 576.411 1105.59 579.927 1105.59 585.052C1105.59 590.177 1102.31 593.661 1097.45 593.661ZM1097.45 590.364C1099.98 590.364 1101.59 588.333 1101.59 585.052C1101.59 581.755 1099.96 579.708 1097.45 579.708C1094.91 579.708 1093.29 581.739 1093.29 585.052C1093.29 588.349 1094.9 590.364 1097.45 590.364ZM1116.38 576.786V579.958H1113.02V588.552C1113.02 589.724 1113.42 590.114 1114.7 590.114H1116.38V593.286H1114.01C1110.65 593.286 1109.07 591.958 1109.07 589.13V579.958H1106.2V576.786H1109.07V572.286H1113.02V576.786H1116.38ZM633.074 636.817V633.614H635.028C636.09 633.614 636.59 633.083 637.059 631.786L637.668 630.192L631.309 613.786H635.481L638.512 622.38C638.918 623.599 639.324 624.817 639.699 626.036C640.074 624.817 640.465 623.599 640.887 622.38L643.903 613.786H648.028L640.653 633.005C639.668 635.583 638.043 636.817 635.653 636.817H633.074ZM656.2 630.661C651.341 630.661 648.059 627.177 648.059 622.052C648.059 616.927 651.341 613.411 656.2 613.411C661.059 613.411 664.341 616.927 664.341 622.052C664.341 627.177 661.059 630.661 656.2 630.661ZM656.2 627.364C658.731 627.364 660.341 625.333 660.341 622.052C660.341 618.755 658.716 616.708 656.2 616.708C653.669 616.708 652.044 618.739 652.044 622.052C652.044 625.349 653.653 627.364 656.2 627.364ZM672.31 630.614C668.857 630.614 666.435 628.333 666.435 624.099V613.786H670.373V623.474C670.373 625.896 671.591 627.161 673.701 627.161C675.779 627.161 677.31 625.927 677.31 623.114V613.786H681.263V630.286H677.388V627.755C676.263 629.614 674.591 630.614 672.31 630.614ZM698.046 630.661C693.218 630.661 689.983 627.146 689.983 622.052C689.983 616.958 693.218 613.411 698.046 613.411C702.186 613.411 705.186 616.021 705.53 619.692H701.671C701.374 617.927 700.139 616.692 698.093 616.692C695.514 616.692 693.968 618.786 693.968 622.052C693.968 625.302 695.499 627.38 698.093 627.38C700.155 627.38 701.264 626.192 701.639 624.364H705.53C705.249 627.974 702.218 630.661 698.046 630.661ZM714.921 630.661C710.062 630.661 706.781 627.177 706.781 622.052C706.781 616.927 710.062 613.411 714.921 613.411C719.781 613.411 723.062 616.927 723.062 622.052C723.062 627.177 719.781 630.661 714.921 630.661ZM714.921 627.364C717.453 627.364 719.062 625.333 719.062 622.052C719.062 618.755 717.437 616.708 714.921 616.708C712.39 616.708 710.765 618.739 710.765 622.052C710.765 625.349 712.374 627.364 714.921 627.364ZM729.297 630.286L723.094 613.786H727.266L730.281 622.38C730.703 623.677 731.109 624.989 731.516 626.286C731.906 624.989 732.297 623.677 732.719 622.38L735.688 613.786H739.813L733.609 630.286H729.297ZM747.891 630.661C742.938 630.661 739.844 627.052 739.844 622.052C739.844 617.036 743.11 613.411 747.735 613.411C752.485 613.411 755.641 616.927 755.641 621.989V623.067H743.704C743.798 625.755 745.329 627.552 747.985 627.552C749.969 627.552 751.298 626.599 751.751 625.192H755.438C754.813 628.427 751.751 630.661 747.891 630.661ZM743.735 620.349H751.86C751.61 617.989 750.079 616.536 747.798 616.536C745.516 616.536 744.001 617.989 743.735 620.349ZM757.689 630.286V613.786H761.486V616.521H761.533C762.142 614.63 763.408 613.63 765.533 613.63C766.064 613.63 766.501 613.661 766.814 613.692V617.192C766.517 617.146 765.736 617.067 764.954 617.067C763.079 617.067 761.626 618.364 761.626 620.942V630.286H757.689ZM775.518 630.661C770.564 630.661 767.471 627.052 767.471 622.052C767.471 617.036 770.736 613.411 775.361 613.411C780.111 613.411 783.268 616.927 783.268 621.989V623.067H771.33C771.424 625.755 772.955 627.552 775.611 627.552C777.596 627.552 778.924 626.599 779.377 625.192H783.064C782.439 628.427 779.377 630.661 775.518 630.661ZM771.361 620.349H779.486C779.236 617.989 777.705 616.536 775.424 616.536C773.143 616.536 771.627 617.989 771.361 620.349ZM791.69 630.614C787.378 630.614 784.549 627.161 784.549 622.021C784.549 616.942 787.424 613.458 791.659 613.458C793.799 613.458 795.565 614.317 796.628 616.13H796.659V607.005H800.596V630.286H796.721V627.771H796.69C795.659 629.677 793.846 630.614 791.69 630.614ZM792.612 627.317C795.19 627.317 796.878 625.239 796.878 622.021C796.878 618.817 795.19 616.724 792.612 616.724C790.174 616.724 788.534 618.614 788.534 622.021C788.534 625.442 790.174 627.317 792.612 627.317ZM805.488 630.567C804.144 630.567 803.066 629.489 803.066 628.146C803.066 626.802 804.144 625.724 805.488 625.724C806.831 625.724 807.909 626.802 807.909 628.146C807.909 629.489 806.831 630.567 805.488 630.567Z" fill="white"/>
<path d="M725.617 556.552C722.336 556.552 719.914 554.896 719.914 551.599C719.914 547.849 722.992 546.927 726.398 546.567C729.461 546.224 730.508 546.177 730.508 545.052V544.927C730.508 543.521 729.383 542.521 727.492 542.521C725.57 542.521 724.289 543.521 724.179 544.911H720.383C720.57 541.63 723.258 539.458 727.57 539.458C731.867 539.458 734.414 541.599 734.414 545.036V556.286H730.539V553.958H730.476C729.695 555.427 728.304 556.552 725.617 556.552ZM726.586 553.63C729.164 553.63 730.523 552.099 730.523 550.177V548.396C730.039 548.708 728.508 548.958 726.883 549.208C725.195 549.458 723.758 550.067 723.758 551.567C723.758 552.864 724.867 553.63 726.586 553.63ZM744.555 556.661C739.727 556.661 736.493 553.146 736.493 548.052C736.493 542.958 739.727 539.411 744.555 539.411C748.696 539.411 751.696 542.021 752.039 545.692H748.18C747.883 543.927 746.649 542.692 744.602 542.692C742.024 542.692 740.477 544.786 740.477 548.052C740.477 551.302 742.008 553.38 744.602 553.38C746.664 553.38 747.774 552.192 748.149 550.364H752.039C751.758 553.974 748.727 556.661 744.555 556.661ZM762.759 539.786V542.958H759.399V551.552C759.399 552.724 759.79 553.114 761.071 553.114H762.759V556.286H760.384C757.024 556.286 755.446 554.958 755.446 552.13V542.958H752.571V539.786H755.446V535.286H759.399V539.786H762.759ZM764.603 556.286V539.786H768.541V556.286H764.603ZM766.572 537.333C765.228 537.333 764.213 536.364 764.213 535.083C764.213 533.817 765.228 532.849 766.572 532.849C767.916 532.849 768.931 533.817 768.931 535.083C768.931 536.364 767.916 537.333 766.572 537.333ZM776.135 556.286L769.932 539.786H774.104L777.119 548.38C777.541 549.677 777.948 550.989 778.354 552.286C778.744 550.989 779.135 549.677 779.557 548.38L782.526 539.786H786.651L780.448 556.286H776.135ZM792.542 556.552C789.261 556.552 786.839 554.896 786.839 551.599C786.839 547.849 789.917 546.927 793.323 546.567C796.386 546.224 797.433 546.177 797.433 545.052V544.927C797.433 543.521 796.308 542.521 794.417 542.521C792.495 542.521 791.214 543.521 791.104 544.911H787.308C787.495 541.63 790.183 539.458 794.495 539.458C798.792 539.458 801.339 541.599 801.339 545.036V556.286H797.464V553.958H797.401C796.62 555.427 795.229 556.552 792.542 556.552ZM793.511 553.63C796.089 553.63 797.448 552.099 797.448 550.177V548.396C796.964 548.708 795.433 548.958 793.808 549.208C792.12 549.458 790.683 550.067 790.683 551.567C790.683 552.864 791.792 553.63 793.511 553.63ZM812.886 539.786V542.958H809.527V551.552C809.527 552.724 809.918 553.114 811.199 553.114H812.886V556.286H810.511C807.152 556.286 805.574 554.958 805.574 552.13V542.958H802.699V539.786H805.574V535.286H809.527V539.786H812.886ZM821.762 556.661C816.809 556.661 813.715 553.052 813.715 548.052C813.715 543.036 816.981 539.411 821.606 539.411C826.356 539.411 829.512 542.927 829.512 547.989V549.067H817.574C817.668 551.755 819.199 553.552 821.856 553.552C823.84 553.552 825.168 552.599 825.621 551.192H829.309C828.684 554.427 825.621 556.661 821.762 556.661ZM817.606 546.349H825.731C825.481 543.989 823.949 542.536 821.668 542.536C819.387 542.536 817.871 543.989 817.606 546.349ZM837.934 556.614C833.622 556.614 830.794 553.161 830.794 548.021C830.794 542.942 833.669 539.458 837.903 539.458C840.044 539.458 841.809 540.317 842.872 542.13H842.903V533.005H846.841V556.286H842.966V553.771H842.934C841.903 555.677 840.091 556.614 837.934 556.614ZM838.856 553.317C841.434 553.317 843.122 551.239 843.122 548.021C843.122 544.817 841.434 542.724 838.856 542.724C836.419 542.724 834.778 544.614 834.778 548.021C834.778 551.442 836.419 553.317 838.856 553.317Z" fill="#EB4A14"/>
<path d="M488.896 478.395C474.519 478.395 464.34 467.796 464.34 451.531C464.34 435.16 474.519 424.596 488.896 424.596C500.649 424.596 509.604 431.907 511.353 443.31H501.943C500.544 436.664 495.647 432.886 488.966 432.886C479.416 432.886 473.644 440.267 473.644 451.531C473.644 462.724 479.381 470.105 488.966 470.105C495.612 470.105 500.509 466.362 501.978 459.751H511.353C509.604 471.119 500.649 478.395 488.896 478.395ZM532.727 478.395C521.848 478.395 514.502 470.595 514.502 459.121C514.502 447.648 521.848 439.777 532.727 439.777C543.605 439.777 550.951 447.648 550.951 459.121C550.951 470.595 543.605 478.395 532.727 478.395ZM532.727 471.014C538.393 471.014 541.996 466.467 541.996 459.121C541.996 451.741 538.358 447.158 532.727 447.158C527.06 447.158 523.422 451.706 523.422 459.121C523.422 466.502 527.025 471.014 532.727 471.014ZM564.455 456.673V477.556H555.64V440.617H564.315V446.284C566.833 442.121 570.576 439.882 575.648 439.882C583.379 439.882 588.836 444.989 588.836 454.469V477.556H579.986V455.868C579.986 450.446 577.257 447.613 572.535 447.613C567.918 447.613 564.455 450.376 564.455 456.673ZM612.029 492.667C602.269 492.667 596.358 488.155 595.378 480.984H604.018C604.858 484.167 607.901 485.846 612.029 485.846C617.555 485.846 620.739 482.803 620.739 477.136V471.504H620.704C618.325 475.842 614.407 477.801 609.545 477.801C599.891 477.801 593.559 470.035 593.559 458.911C593.559 447.683 599.996 439.882 609.475 439.882C614.267 439.882 618.29 441.876 620.739 446.109H620.774V440.617H629.484V476.611C629.484 488.05 622.033 492.667 612.029 492.667ZM611.609 470.525C617.381 470.525 621.158 465.907 621.158 458.806C621.158 451.706 617.381 447.088 611.609 447.088C606.152 447.088 602.479 451.286 602.479 458.806C602.479 466.362 606.152 470.525 611.609 470.525ZM635.886 477.556V440.617H644.386V446.738H644.491C645.855 442.506 648.689 440.267 653.446 440.267C654.635 440.267 655.615 440.337 656.314 440.407V448.243C655.65 448.138 653.901 447.963 652.152 447.963C647.954 447.963 644.701 450.866 644.701 456.638V477.556H635.886ZM670.553 478.15C663.207 478.15 657.785 474.442 657.785 467.062C657.785 458.667 664.676 456.603 672.302 455.798C679.158 455.029 681.501 454.924 681.501 452.405V452.125C681.501 448.977 678.983 446.738 674.75 446.738C670.448 446.738 667.579 448.977 667.334 452.09H658.834C659.254 444.745 665.271 439.882 674.925 439.882C684.544 439.882 690.246 444.675 690.246 452.37V477.556H681.571V472.344H681.431C679.682 475.632 676.569 478.15 670.553 478.15ZM672.721 471.609C678.493 471.609 681.536 468.181 681.536 463.879V459.891C680.452 460.59 677.024 461.15 673.386 461.71C669.608 462.269 666.39 463.634 666.39 466.992C666.39 469.895 668.874 471.609 672.721 471.609ZM716.098 440.617V447.718H708.577V466.957C708.577 469.58 709.452 470.455 712.32 470.455H716.098V477.556H710.781C703.26 477.556 699.727 474.582 699.727 468.251V447.718H693.291V440.617H699.727V430.543H708.577V440.617H716.098ZM733.379 478.29C725.649 478.29 720.227 473.183 720.227 463.704V440.617H729.042V462.304C729.042 467.726 731.77 470.56 736.492 470.56C741.145 470.56 744.573 467.796 744.573 461.5V440.617H753.422V477.556H744.748V471.889C742.229 476.052 738.486 478.29 733.379 478.29ZM768.675 425.436V477.556H759.86V425.436H768.675ZM786.341 478.15C778.996 478.15 773.574 474.442 773.574 467.062C773.574 458.667 780.465 456.603 788.09 455.798C794.946 455.029 797.29 454.924 797.29 452.405V452.125C797.29 448.977 794.771 446.738 790.539 446.738C786.236 446.738 783.368 448.977 783.123 452.09H774.623C775.043 444.745 781.059 439.882 790.714 439.882C800.333 439.882 806.035 444.675 806.035 452.37V477.556H797.36V472.344H797.22C795.471 475.632 792.358 478.15 786.341 478.15ZM788.51 471.609C794.282 471.609 797.325 468.181 797.325 463.879V459.891C796.241 460.59 792.813 461.15 789.175 461.71C785.397 462.269 782.179 463.634 782.179 466.992C782.179 469.895 784.662 471.609 788.51 471.609ZM831.886 440.617V447.718H824.366V466.957C824.366 469.58 825.24 470.455 828.109 470.455H831.886V477.556H826.569C819.049 477.556 815.516 474.582 815.516 468.251V447.718H809.08V440.617H815.516V430.543H824.366V440.617H831.886ZM836.015 477.556V440.617H844.83V477.556H836.015ZM840.423 435.125C837.415 435.125 835.141 432.956 835.141 430.088C835.141 427.255 837.415 425.086 840.423 425.086C843.431 425.086 845.705 427.255 845.705 430.088C845.705 432.956 843.431 435.125 840.423 435.125ZM867.743 478.395C856.865 478.395 849.519 470.595 849.519 459.121C849.519 447.648 856.865 439.777 867.743 439.777C878.622 439.777 885.968 447.648 885.968 459.121C885.968 470.595 878.622 478.395 867.743 478.395ZM867.743 471.014C873.41 471.014 877.013 466.467 877.013 459.121C877.013 451.741 873.375 447.158 867.743 447.158C862.077 447.158 858.439 451.706 858.439 459.121C858.439 466.502 862.042 471.014 867.743 471.014ZM899.472 456.673V477.556H890.657V440.617H899.332V446.284C901.85 442.121 905.593 439.882 910.665 439.882C918.396 439.882 923.852 444.989 923.852 454.469V477.556H915.003V455.868C915.003 450.446 912.274 447.613 907.552 447.613C902.935 447.613 899.472 450.376 899.472 456.673ZM944.772 478.43C935.782 478.43 929.101 474.093 928.541 466.152H937.251C937.636 469.755 940.224 471.819 944.632 471.819C948.899 471.819 951.488 469.965 951.488 467.342C951.488 465.103 949.564 463.809 946.451 463.144L940.154 461.85C933.088 460.381 929.381 456.778 929.381 451.181C929.381 444.395 935.222 439.812 944.247 439.812C953.202 439.812 959.323 444.535 959.533 452.125H951.243C951.173 448.837 948.48 446.424 944.457 446.424C940.574 446.424 938.196 448.383 938.196 450.901C938.196 453.105 940.014 454.469 943.093 455.134L949.739 456.498C957.05 458.037 960.443 461.255 960.443 466.677C960.443 473.883 953.901 478.43 944.772 478.43ZM965.656 462.654L964.886 425.436H974.366L973.596 462.654H965.656ZM969.609 478.185C966.6 478.185 964.187 475.772 964.187 472.763C964.187 469.755 966.6 467.342 969.609 467.342C972.652 467.342 975.031 469.755 975.031 472.763C975.031 475.772 972.652 478.185 969.609 478.185Z" fill="white"/>
<mask id="mask0_272_793" style="mask-type:alpha" maskUnits="userSpaceOnUse" x="189" y="129" width="1063" height="279">
<path d="M741.082 169.874C768.706 197.316 782.518 230.257 782.518 268.642C782.518 307.028 768.706 340.134 741.082 366.86C713.458 393.972 680.592 407.5 642.541 407.5C604.489 407.5 571.952 393.972 544 366.86C516.758 340.134 503.109 307.358 503.109 268.642C503.109 229.927 516.758 197.371 544 169.874C571.952 142.763 604.817 129.234 642.541 129.234C680.265 129.234 713.512 142.818 741.082 169.874ZM700.737 327.76C716.46 311.592 724.322 291.85 724.322 268.587C724.322 245.325 716.46 225.968 700.737 209.415C684.632 192.862 665.252 184.613 642.541 184.613C619.83 184.613 600.231 192.862 584.89 209.415C569.167 225.968 561.306 245.655 561.306 268.587C561.306 291.52 569.167 311.537 584.89 327.76C600.613 343.983 619.83 352.067 642.541 352.067C665.252 352.067 684.632 343.983 700.737 327.76Z" fill="url(#paint0_linear_272_793)"/>
<path d="M892.035 208.973C876.312 225.526 868.45 245.048 868.45 267.596V407.553H810.254V267.596C810.254 229.595 824.066 196.819 851.69 169.378C878.605 142.651 911.47 129.232 950.231 129.232H987.955V184.171H950.231C927.138 184.171 907.758 192.42 892.035 208.973Z" fill="url(#paint1_linear_272_793)"/>
<path d="M1210.81 170.422C1237.72 197.534 1251.15 230.255 1251.15 268.64C1251.15 307.026 1237.67 339.252 1210.81 366.363C1183.89 393.805 1151.74 407.553 1114.34 407.553H1011.6V129.232L1114.34 129.232C1151.74 129.232 1183.89 142.981 1210.81 170.422ZM1168.88 327.263C1177.29 319.179 1183.46 310.215 1187.5 300.317C1191.54 290.473 1193.5 279.914 1193.5 268.64C1193.5 257.367 1191.48 246.643 1187.5 236.414C1183.46 226.186 1177.45 217.057 1169.43 208.973C1152.99 193.135 1133.61 185.216 1111.23 185.216H1066.14V351.02H1111.23C1133.23 351.02 1152.45 343.101 1168.88 327.263Z" fill="url(#paint2_linear_272_793)"/>
<path d="M448.034 195.28C421.665 171.083 390.274 158.93 353.86 158.93C317.446 158.93 286.055 171.028 259.686 195.28C233.645 219.807 220.598 249.229 220.598 283.489V407.554H275.682L275.682 283.489C275.682 262.757 283.38 245.104 298.721 230.641C313.406 215.848 331.804 208.479 353.805 208.479C375.807 208.479 394.204 215.848 408.89 230.641C424.231 246.039 431.928 263.637 431.928 283.489V407.554H439.899C465.886 407.554 487.013 386.327 487.013 360.095L487.013 283.489C487.013 249.229 473.965 219.807 447.924 195.28H448.034Z" fill="url(#paint3_linear_272_793)"/>
<path d="M299.532 146.94V129.232L189.145 129.232L189.145 228.55H206.123C231.782 181.421 299.532 146.94 299.532 146.94Z" fill="url(#paint4_linear_272_793)"/>
</mask>
<g mask="url(#mask0_272_793)">
<rect x="165.703" y="104.239" width="1108.89" height="199.564" fill="url(#paint5_linear_272_793)"/>
</g>
<rect x="0.148438" y="706.419" width="1440" height="261.561" fill="#EB4A14"/>
<rect x="361.395" y="785.989" width="164.268" height="151.148" rx="13.1765" fill="white"/>
<path d="M384.157 898.253V888.666H387.818C389.922 888.666 391.241 889.85 391.241 891.729C391.241 893.614 389.89 894.804 387.786 894.804H385.856V898.253H384.157ZM385.856 893.35H387.722C388.867 893.35 389.568 892.733 389.568 891.729C389.568 890.732 388.867 890.121 387.722 890.121H385.856V893.35ZM390.623 898.253L394.046 888.666H396.182L399.592 898.253H397.72L396.954 895.962H393.235L392.45 898.253H390.623ZM393.711 894.566H396.491L396.041 893.215C395.757 892.334 395.474 891.414 395.114 890.204C394.754 891.414 394.464 892.334 394.175 893.215L393.711 894.566ZM402.172 888.666V898.253H400.473V888.666H402.172ZM403.768 898.253V888.666H405.601L408.966 894.013C409.191 894.373 409.616 895.107 409.996 895.789C409.97 895.068 409.957 894.27 409.957 893.891V888.666H411.662V898.253H409.822L406.785 893.44C406.515 893.009 406.007 892.16 405.421 891.124C405.46 892.192 405.466 893.016 405.466 893.434V898.253H403.768ZM412.762 890.14V888.666H420.425V890.14H417.452V898.253H415.747V890.14H412.762ZM384.157 914.253V904.666H387.818C389.922 904.666 391.241 905.85 391.241 907.729C391.241 909.614 389.89 910.804 387.786 910.804H385.856V914.253H384.157ZM385.856 909.35H387.722C388.867 909.35 389.568 908.733 389.568 907.729C389.568 906.732 388.867 906.121 387.722 906.121H385.856V909.35ZM392.393 914.253V904.666H396.131C398.241 904.666 399.56 905.85 399.56 907.729C399.56 909.035 398.878 909.994 397.739 910.457L399.74 914.253H397.868L396.066 910.766C396.053 910.766 396.041 910.766 396.021 910.766H394.091V914.253H392.393ZM394.091 909.363H396.047C397.179 909.363 397.887 908.733 397.887 907.729C397.887 906.732 397.179 906.108 396.034 906.108H394.091V909.363ZM404.99 914.407C402.423 914.407 400.525 912.451 400.525 909.466C400.525 906.462 402.423 904.512 404.99 904.512C407.557 904.512 409.455 906.462 409.455 909.466C409.455 912.458 407.557 914.407 404.99 914.407ZM404.99 912.883C406.553 912.883 407.737 911.654 407.737 909.466C407.737 907.272 406.553 906.037 404.99 906.037C403.42 906.037 402.236 907.272 402.236 909.466C402.236 911.654 403.42 912.883 404.99 912.883ZM409.687 906.14V904.666H417.349V906.14H414.377V914.253H412.672V906.14H409.687ZM418.45 914.253V904.666H425.109V906.14H420.148V908.662H424.736V910.11H420.148V912.78H425.109V914.253H418.45ZM430.52 914.407C427.875 914.407 426.003 912.458 426.003 909.466C426.003 906.455 427.875 904.512 430.52 904.512C432.681 904.512 434.328 905.857 434.65 907.954H432.919C432.662 906.732 431.761 906.037 430.532 906.037C428.776 906.037 427.714 907.394 427.714 909.466C427.714 911.525 428.77 912.883 430.532 912.883C431.755 912.883 432.656 912.194 432.926 910.978H434.65C434.328 913.069 432.681 914.407 430.52 914.407ZM435.384 906.14V904.666H443.046V906.14H440.074V914.253H438.369V906.14H435.384ZM445.845 904.666V914.253H444.146V904.666H445.845ZM451.571 914.407C449.004 914.407 447.106 912.451 447.106 909.466C447.106 906.462 449.004 904.512 451.571 904.512C454.138 904.512 456.036 906.462 456.036 909.466C456.036 912.458 454.138 914.407 451.571 914.407ZM451.571 912.883C453.135 912.883 454.318 911.654 454.318 909.466C454.318 907.272 453.135 906.037 451.571 906.037C450.001 906.037 448.817 907.272 448.817 909.466C448.817 911.654 450.001 912.883 451.571 912.883ZM457.297 914.253V904.666H459.131L462.496 910.013C462.721 910.373 463.146 911.107 463.525 911.789C463.5 911.068 463.487 910.27 463.487 909.891V904.666H465.192V914.253H463.352L460.315 909.44C460.045 909.009 459.536 908.16 458.951 907.124C458.989 908.192 458.996 909.016 458.996 909.434V914.253H457.297ZM469.779 914.253V904.666H476.226V906.14H471.478V908.758H475.885V910.2H471.478V914.253H469.779ZM479.018 904.666V914.253H477.319V904.666H479.018ZM480.614 914.253V904.666H482.312V912.78H486.758V914.253H480.614ZM487.858 914.253V904.666H490.303L492.169 909.704C492.349 910.238 492.658 911.197 492.883 911.943C493.108 911.197 493.417 910.238 493.591 909.704L495.424 904.666H497.882V914.253H496.209V909.363C496.209 908.688 496.241 907.626 496.267 906.642C495.926 907.723 495.598 908.778 495.392 909.363L493.565 914.253H492.175L490.335 909.363C490.136 908.803 489.814 907.813 489.479 906.777C489.499 907.723 489.531 908.72 489.531 909.363V914.253H487.858Z" fill="#1E1E1E"/>
<path d="M412.408 845.489C411.177 845.604 410.029 845.721 408.882 845.818C405.701 846.084 402.522 846.39 399.338 846.579C398.126 846.65 396.884 846.537 395.681 846.347C392.861 845.905 391.001 844.149 390.016 841.522C389.251 839.482 388.672 837.364 388.104 835.254C386.821 830.487 385.597 825.704 384.349 820.927C384.31 820.777 384.28 820.626 384.221 820.373C385.843 821.424 387.571 821.861 389.36 822.036C395.25 822.617 400.885 821.768 406.129 818.836C406.52 818.617 406.891 818.355 407.257 818.093C407.617 817.833 407.959 817.547 408.415 817.191C408.559 818.55 408.749 819.81 408.816 821.078C408.986 824.283 409.133 827.489 409.229 830.697C409.374 835.608 410.379 840.324 412.177 844.876C412.248 845.054 412.312 845.232 412.41 845.492L412.408 845.489Z" fill="#EB4A14"/>
<path d="M393.982 821.249C393.37 817.716 392.767 814.239 392.16 810.738C395.709 811.656 398.705 811.116 401.422 809.062C401.611 810.136 401.797 811.178 401.979 812.22C402.358 814.393 402.726 816.568 403.117 818.738C403.189 819.139 403.141 819.35 402.708 819.509C400.064 820.478 397.348 821.076 394.541 821.248C394.372 821.258 394.201 821.249 393.981 821.249H393.982Z" fill="#EB4A14"/>
<path d="M391.026 809.381C391.711 813.329 392.396 817.278 393.082 821.233C393.02 821.269 392.978 821.313 392.937 821.314C390.738 821.336 388.544 821.235 386.456 820.471C385.694 820.192 384.948 819.756 384.322 819.234C383.323 818.4 383.135 817.415 383.861 816.336C384.664 815.144 385.578 814.002 386.597 812.998C387.939 811.674 389.43 810.505 390.857 809.27C390.913 809.307 390.97 809.344 391.026 809.381Z" fill="#EB4A14"/>
<path d="M394.597 810.336C394.219 810.259 393.455 810.187 392.75 809.94C391.697 809.57 391.571 808.746 392.401 807.981C393.227 807.219 394.25 806.847 395.311 806.577C396.797 806.201 398.296 806.021 399.806 806.411C400.378 806.559 401.001 806.744 401.125 807.43C401.252 808.123 400.722 808.521 400.235 808.847C398.642 809.91 396.844 810.25 394.596 810.335L394.597 810.336ZM395.84 809.093C396.734 809.045 397.481 808.919 398.101 808.417C398.51 808.086 398.461 807.705 397.966 807.564C396.879 807.255 395.842 807.446 394.92 808.103C394.482 808.414 394.575 808.81 395.101 808.973C395.376 809.059 395.674 809.068 395.84 809.093Z" fill="#EB4A14"/>
<rect x="729.93" y="785.989" width="164.268" height="151.148" rx="13.1765" fill="white"/>
<path d="M752.313 898.253V888.666H754.147L757.512 894.013C757.737 894.373 758.162 895.107 758.541 895.789C758.516 895.068 758.503 894.27 758.503 893.891V888.666H760.208V898.253H758.368L755.331 893.44C755.061 893.009 754.552 892.16 753.967 891.124C754.006 892.192 754.012 893.016 754.012 893.434V898.253H752.313ZM765.94 898.407C763.373 898.407 761.475 896.451 761.475 893.466C761.475 890.462 763.373 888.512 765.94 888.512C768.507 888.512 770.405 890.462 770.405 893.466C770.405 896.458 768.507 898.407 765.94 898.407ZM765.94 896.883C767.504 896.883 768.688 895.654 768.688 893.466C768.688 891.272 767.504 890.037 765.94 890.037C764.37 890.037 763.187 891.272 763.187 893.466C763.187 895.654 764.37 896.883 765.94 896.883ZM771.666 898.253V888.666H775.405C777.515 888.666 778.834 889.85 778.834 891.729C778.834 893.035 778.152 893.994 777.013 894.457L779.014 898.253H777.142L775.34 894.766C775.327 894.766 775.314 894.766 775.295 894.766H773.365V898.253H771.666ZM773.365 893.363H775.321C776.453 893.363 777.161 892.733 777.161 891.729C777.161 890.732 776.453 890.108 775.308 890.108H773.365V893.363ZM783.395 898.253H780.159V888.666H783.466C786.316 888.666 788.086 890.5 788.086 893.447C788.086 896.413 786.329 898.253 783.395 898.253ZM781.858 896.799H783.305C785.39 896.799 786.368 895.576 786.368 893.447C786.368 891.337 785.377 890.121 783.357 890.121H781.858V896.799ZM756.495 914.407C753.851 914.407 751.979 912.458 751.979 909.466C751.979 906.455 753.851 904.512 756.495 904.512C758.657 904.512 760.304 905.857 760.626 907.954H758.895C758.638 906.732 757.737 906.037 756.508 906.037C754.752 906.037 753.69 907.394 753.69 909.466C753.69 911.525 754.745 912.883 756.508 912.883C757.731 912.883 758.631 912.194 758.902 910.978H760.626C760.304 913.069 758.657 914.407 756.495 914.407ZM765.992 914.407C763.425 914.407 761.527 912.451 761.527 909.466C761.527 906.462 763.425 904.512 765.992 904.512C768.559 904.512 770.457 906.462 770.457 909.466C770.457 912.458 768.559 914.407 765.992 914.407ZM765.992 912.883C767.555 912.883 768.739 911.654 768.739 909.466C768.739 907.272 767.555 906.037 765.992 906.037C764.422 906.037 763.238 907.272 763.238 909.466C763.238 911.654 764.422 912.883 765.992 912.883ZM770.528 914.253L773.951 904.666H776.087L779.496 914.253H777.624L776.859 911.962H773.14L772.355 914.253H770.528ZM773.616 910.566H776.395L775.945 909.215C775.662 908.334 775.379 907.414 775.019 906.204C774.658 907.414 774.369 908.334 774.079 909.215L773.616 910.566ZM778.589 906.14V904.666H786.252V906.14H783.28V914.253H781.575V906.14H778.589ZM789.051 904.666V914.253H787.352V904.666H789.051ZM790.646 914.253V904.666H792.48L795.845 910.013C796.07 910.373 796.495 911.107 796.874 911.789C796.849 911.068 796.836 910.27 796.836 909.891V904.666H798.541V914.253H796.701L793.664 909.44C793.394 909.009 792.885 908.16 792.3 907.124C792.338 908.192 792.345 909.016 792.345 909.434V914.253H790.646ZM804.305 914.407C801.648 914.407 799.808 912.4 799.808 909.466C799.808 906.455 801.713 904.512 804.286 904.512C806.429 904.512 808.153 905.863 808.43 907.845H806.699C806.461 906.764 805.56 906.037 804.331 906.037C802.613 906.037 801.52 907.388 801.52 909.466C801.52 911.538 802.62 912.883 804.344 912.883C805.76 912.883 806.802 911.962 806.815 910.605H804.589V909.26H808.494V910.418C808.494 912.754 806.725 914.407 804.305 914.407ZM813.287 914.407C810.913 914.407 809.491 913.178 809.491 911.126H811.158C811.17 912.284 811.968 912.973 813.3 912.973C814.497 912.973 815.288 912.432 815.288 911.589C815.288 910.914 814.786 910.521 813.506 910.225L812.476 909.994C810.559 909.556 809.678 908.713 809.678 907.369C809.678 905.657 811.087 904.512 813.203 904.512C815.346 904.512 816.678 905.67 816.736 907.575H815.121C815.05 906.564 814.317 905.953 813.197 905.953C812.135 905.953 811.383 906.5 811.383 907.285C811.383 907.928 811.878 908.289 813.126 908.578L814.098 908.803C816.086 909.247 816.98 910.077 816.98 911.486C816.98 913.275 815.558 914.407 813.287 914.407Z" fill="#1E1E1E"/>
<path d="M811.251 821.893C810.227 823.641 809.187 825.381 808.186 827.143C807.863 827.713 807.457 827.973 806.788 827.959C805.136 827.927 803.484 827.959 801.832 827.941C801.459 827.936 801.236 828.033 801.046 828.374C800.331 829.656 799.59 830.924 798.833 832.183C798.648 832.493 798.662 832.717 798.842 833.02C799.702 834.465 800.525 835.931 801.387 837.374C801.689 837.881 801.687 838.328 801.387 838.834C800.419 840.463 799.467 842.1 798.534 843.747C798.232 844.28 797.825 844.501 797.21 844.495C795.325 844.473 793.44 844.473 791.554 844.495C790.934 844.503 790.54 844.258 790.241 843.73C789.464 842.351 788.633 840.999 787.872 839.61C787.608 839.127 787.317 838.93 786.746 838.946C785.192 838.991 783.635 838.929 782.081 838.975C781.336 838.997 780.858 838.738 780.558 838.077C780.423 837.78 780.222 837.512 780.074 837.219C779.824 836.727 779.945 836.249 780.362 836.009C780.782 835.766 781.359 835.863 781.552 836.349C781.882 837.179 782.467 837.281 783.248 837.247C784.509 837.193 785.774 837.223 787.037 837.24C787.373 837.244 787.557 837.131 787.721 836.84C788.453 835.544 789.201 834.258 789.966 832.982C790.142 832.689 790.125 832.479 789.955 832.195C789.191 830.918 788.443 829.631 787.712 828.337C787.547 828.044 787.357 827.937 787.023 827.942C785.526 827.959 784.028 827.934 782.534 827.965C782.317 827.97 782.016 828.133 781.905 828.314C781.112 829.617 780.348 830.94 779.604 832.273C779.506 832.449 779.533 832.731 779.586 832.945C779.685 833.352 779.62 833.745 779.261 833.901C778.971 834.027 778.41 834.066 778.27 833.897C777.873 833.42 777.406 833.477 776.913 833.476C776.683 833.476 776.453 833.476 776.215 833.476C776.153 834.395 776.145 835.281 776.025 836.151C775.235 841.936 770.108 846.477 764.267 846.591C758.083 846.714 752.799 842.515 751.737 836.636C751.673 836.28 751.59 835.927 751.516 835.572C751.516 834.761 751.516 833.949 751.516 833.138C751.59 832.723 751.667 832.308 751.74 831.893C751.855 831.235 752.253 830.887 752.779 830.989C753.319 831.094 753.58 831.537 753.462 832.195C753.155 833.914 753.191 835.614 753.69 837.295C755.121 842.109 759.606 845.173 764.735 844.837C769.486 844.524 773.532 840.774 774.286 835.965C774.364 835.471 774.379 834.967 774.409 834.467C774.426 834.162 774.412 833.855 774.412 833.479C773.791 833.479 773.233 833.449 772.681 833.497C772.525 833.511 772.349 833.727 772.253 833.891C771.405 835.321 770.556 836.749 769.748 838.201C769.436 838.765 769.022 838.986 768.387 838.98C766.521 838.958 764.654 838.957 762.789 838.98C762.153 838.988 761.736 838.765 761.421 838.207C760.502 836.574 759.558 834.954 758.598 833.344C758.298 832.841 758.276 832.397 758.579 831.886C759.547 830.257 760.501 828.62 761.431 826.971C761.747 826.411 762.179 826.199 762.807 826.206C764.48 826.227 766.15 826.206 767.823 826.219C768.151 826.222 768.35 826.131 768.515 825.833C769.028 824.903 769.584 823.995 770.098 823.066C770.182 822.913 770.229 822.639 770.148 822.511C768.42 819.795 766.519 817.212 764.178 814.975C764.081 814.884 763.969 814.806 763.747 814.63C762.674 815.839 761.563 816.997 760.561 818.24C758.159 821.222 756.143 824.443 754.678 827.987C754.412 828.628 753.972 828.86 753.471 828.654C752.953 828.441 752.791 827.975 753.057 827.344C755.187 822.3 758.198 817.835 762.072 813.953C763.577 812.444 764.117 812.479 765.648 813.967C767.672 815.935 769.372 818.163 770.948 820.492C771.055 820.65 771.164 820.808 771.211 820.876C771.738 820.82 772.188 820.733 772.639 820.73C774.446 820.715 776.255 820.736 778.063 820.716C778.659 820.71 779.037 820.941 779.326 821.455C780.15 822.919 781.017 824.361 781.849 825.822C782.012 826.11 782.196 826.227 782.535 826.223C784.032 826.205 785.53 826.208 787.026 826.223C787.353 826.227 787.549 826.138 787.717 825.839C788.445 824.542 789.196 823.257 789.96 821.98C790.133 821.692 790.133 821.481 789.96 821.193C789.1 819.748 788.278 818.281 787.412 816.839C787.096 816.313 787.09 815.859 787.406 815.331C788.376 813.704 789.321 812.063 790.259 810.418C790.535 809.931 790.903 809.702 791.48 809.706C793.404 809.726 795.328 809.728 797.254 809.706C797.851 809.699 798.237 809.92 798.526 810.431C799.317 811.826 800.157 813.195 800.927 814.6C801.188 815.077 801.491 815.223 802.017 815.21C803.493 815.176 804.974 815.246 806.449 815.181C807.373 815.141 807.916 815.481 808.344 816.283C809.154 817.799 810.053 819.269 810.92 820.753C811.013 820.913 811.139 821.054 811.249 821.204V821.899L811.251 821.893ZM794.424 811.445C793.647 811.445 792.867 811.423 792.093 811.46C791.89 811.47 791.613 811.617 791.512 811.786C790.721 813.091 789.952 814.412 789.21 815.745C789.114 815.918 789.117 816.237 789.215 816.41C789.958 817.743 790.727 819.063 791.519 820.369C791.621 820.54 791.887 820.681 792.094 820.707C792.724 820.784 793.059 821.043 793.071 821.557C793.083 822.093 792.732 822.387 792.086 822.472C791.879 822.5 791.612 822.639 791.509 822.808C790.719 824.113 789.951 825.434 789.207 826.767C789.111 826.939 789.12 827.258 789.218 827.433C789.961 828.766 790.73 830.085 791.522 831.392C791.624 831.56 791.9 831.72 792.097 831.723C793.614 831.751 795.131 831.726 796.646 831.748C796.991 831.752 797.164 831.621 797.322 831.342C798.06 830.049 798.805 828.761 799.569 827.484C799.741 827.194 799.733 826.976 799.562 826.691C798.897 825.581 798.234 824.466 797.612 823.331C797.31 822.782 797.042 822.326 796.274 822.433C795.863 822.491 795.474 822.184 795.479 821.754C795.482 821.444 795.692 821.094 795.907 820.845C796.02 820.713 796.344 820.712 796.566 820.732C796.947 820.764 797.159 820.625 797.346 820.293C798.064 819.013 798.808 817.745 799.558 816.483C799.723 816.204 799.751 815.986 799.575 815.692C798.809 814.416 798.063 813.128 797.329 811.834C797.165 811.544 796.977 811.431 796.643 811.442C795.905 811.467 795.165 811.45 794.426 811.45L794.424 811.445ZM804.014 816.929C803.257 816.929 802.496 816.903 801.742 816.946C801.521 816.958 801.222 817.115 801.112 817.296C800.317 818.6 799.551 819.92 798.808 821.253C798.711 821.427 798.715 821.744 798.813 821.919C799.547 823.235 800.304 824.537 801.088 825.826C801.2 826.01 801.491 826.191 801.703 826.196C803.238 826.227 804.774 826.225 806.309 826.196C806.508 826.193 806.783 826.025 806.888 825.853C807.676 824.547 808.442 823.226 809.187 821.894C809.277 821.735 809.286 821.442 809.198 821.286C808.443 819.937 807.667 818.6 806.867 817.277C806.765 817.107 806.491 816.955 806.289 816.945C805.533 816.906 804.773 816.929 804.016 816.929H804.014ZM765.536 837.223C766.312 837.223 767.091 837.249 767.866 837.206C768.084 837.193 768.376 837.029 768.488 836.846C769.271 835.56 770.028 834.258 770.758 832.94C770.859 832.756 770.85 832.417 770.746 832.229C770.014 830.913 769.257 829.61 768.474 828.325C768.362 828.142 768.067 827.97 767.852 827.965C766.337 827.934 764.822 827.934 763.307 827.965C763.094 827.97 762.801 828.15 762.688 828.335C761.905 829.622 761.146 830.924 760.417 832.242C760.312 832.429 760.315 832.771 760.42 832.959C761.151 834.275 761.908 835.577 762.692 836.863C762.803 837.043 763.101 837.195 763.321 837.207C764.057 837.25 764.795 837.223 765.534 837.223H765.536ZM794.418 833.476C793.64 833.476 792.863 833.452 792.086 833.491C791.884 833.5 791.612 833.652 791.509 833.819C790.719 835.125 789.951 836.444 789.209 837.777C789.112 837.95 789.117 838.269 789.215 838.444C789.958 839.777 790.725 841.096 791.517 842.402C791.62 842.57 791.893 842.73 792.091 842.734C793.626 842.762 795.162 842.762 796.695 842.734C796.893 842.731 797.165 842.567 797.268 842.399C798.058 841.093 798.827 839.774 799.57 838.441C799.667 838.266 799.668 837.947 799.572 837.774C798.828 836.441 798.061 835.122 797.269 833.816C797.168 833.649 796.893 833.502 796.691 833.491C795.935 833.452 795.176 833.476 794.418 833.476ZM775.946 831.737C776.489 831.737 776.977 831.774 777.455 831.72C777.677 831.695 777.966 831.543 778.077 831.361C778.869 830.057 779.632 828.733 780.378 827.403C780.468 827.244 780.477 826.951 780.39 826.795C779.636 825.446 778.859 824.108 778.063 822.785C777.968 822.627 777.711 822.475 777.526 822.472C775.972 822.447 774.417 822.453 772.863 822.461C772.343 822.464 772.272 822.59 772.534 823.049C774.085 825.764 775.331 828.595 775.946 831.737ZM771.318 824.472C770.82 825.327 770.371 826.07 769.96 826.833C769.882 826.979 769.901 827.247 769.986 827.397C770.744 828.741 771.52 830.074 772.309 831.399C772.394 831.543 772.575 831.706 772.726 831.72C773.183 831.762 773.647 831.735 774.151 831.735C773.62 829.145 772.611 826.812 771.32 824.472H771.318Z" fill="#EB4A14"/>
<path d="M763.067 819.479C762.902 819.803 762.812 820.035 762.678 820.236C761.459 822.066 760.224 823.886 759.007 825.719C758.646 826.262 758.219 826.443 757.752 826.191C757.287 825.939 757.133 825.418 757.475 824.897C758.744 822.961 760.045 821.046 761.341 819.128C761.585 818.765 761.972 818.607 762.355 818.79C762.63 818.92 762.82 819.231 763.066 819.482L763.067 819.479Z" fill="#EB4A14"/>
<rect x="914.195" y="785.989" width="164.707" height="151.148" rx="13.1765" fill="white"/>
<path d="M938.861 898.253L936.275 888.666H938.07L939.338 893.833C939.531 894.669 939.711 895.506 939.872 896.349C940.045 895.506 940.232 894.669 940.438 893.833L941.757 888.666H943.552L944.858 893.833C945.064 894.663 945.25 895.493 945.424 896.316C945.591 895.493 945.771 894.663 945.964 893.833L947.232 888.666H949.033L946.441 898.253H944.517L943.05 892.707C942.908 892.179 942.786 891.607 942.651 890.97C942.516 891.607 942.394 892.179 942.252 892.707L940.792 898.253H938.861ZM951.62 888.666V898.253H949.921V888.666H951.62ZM953.215 898.253V888.666H955.049L958.414 894.013C958.639 894.373 959.064 895.107 959.443 895.789C959.418 895.068 959.405 894.27 959.405 893.891V888.666H961.11V898.253H959.27L956.233 893.44C955.963 893.009 955.454 892.16 954.869 891.124C954.908 892.192 954.914 893.016 954.914 893.434V898.253H953.215ZM965.948 898.253H962.712V888.666H966.019C968.869 888.666 970.638 890.5 970.638 893.447C970.638 896.413 968.882 898.253 965.948 898.253ZM964.41 896.799H965.858C967.943 896.799 968.92 895.576 968.92 893.447C968.92 891.337 967.93 890.121 965.909 890.121H964.41V896.799ZM976.03 898.407C973.463 898.407 971.565 896.451 971.565 893.466C971.565 890.462 973.463 888.512 976.03 888.512C978.597 888.512 980.495 890.462 980.495 893.466C980.495 896.458 978.597 898.407 976.03 898.407ZM976.03 896.883C977.593 896.883 978.777 895.654 978.777 893.466C978.777 891.272 977.593 890.037 976.03 890.037C974.46 890.037 973.276 891.272 973.276 893.466C973.276 895.654 974.46 896.883 976.03 896.883ZM983.281 898.253L980.694 888.666H982.489L983.757 893.833C983.95 894.669 984.13 895.506 984.291 896.349C984.465 895.506 984.651 894.669 984.857 893.833L986.176 888.666H987.971L989.277 893.833C989.483 894.663 989.67 895.493 989.843 896.316C990.011 895.493 990.191 894.663 990.384 893.833L991.651 888.666H993.453L990.86 898.253H988.936L987.469 892.707C987.328 892.179 987.205 891.607 987.07 890.97C986.935 891.607 986.813 892.179 986.671 892.707L985.211 898.253H983.281ZM936.989 914.253V904.666H943.436V906.14H938.688V908.758H943.095V910.2H938.688V914.253H936.989ZM946.228 904.666V914.253H944.53V904.666H946.228ZM947.824 914.253V904.666H949.522V912.78H953.968V914.253H947.824ZM955.068 914.253V904.666H957.513L959.379 909.704C959.559 910.238 959.868 911.197 960.093 911.943C960.318 911.197 960.627 910.238 960.801 909.704L962.635 904.666H965.092V914.253H963.42V909.363C963.42 908.688 963.452 907.626 963.477 906.642C963.136 907.723 962.808 908.778 962.602 909.363L960.775 914.253H959.385L957.545 909.363C957.346 908.803 957.024 907.813 956.69 906.777C956.709 907.723 956.741 908.72 956.741 909.363V914.253H955.068ZM970.156 914.407C967.782 914.407 966.36 913.178 966.36 911.126H968.026C968.039 912.284 968.837 912.973 970.169 912.973C971.365 912.973 972.157 912.432 972.157 911.589C972.157 910.914 971.655 910.521 970.375 910.225L969.345 909.994C967.428 909.556 966.546 908.713 966.546 907.369C966.546 905.657 967.955 904.512 970.072 904.512C972.215 904.512 973.546 905.67 973.604 907.575H971.989C971.919 906.564 971.185 905.953 970.066 905.953C969.004 905.953 968.251 906.5 968.251 907.285C968.251 907.928 968.747 908.289 969.995 908.578L970.966 908.803C972.954 909.247 973.849 910.077 973.849 911.486C973.849 913.275 972.427 914.407 970.156 914.407Z" fill="#1E1E1E"/>
<path d="M936.227 846.533C936.855 845.537 937.411 844.638 937.983 843.756C940.76 839.476 943.52 835.188 946.34 830.934C947.77 828.772 949.203 826.595 950.822 824.573C953.311 821.466 956.609 819.474 960.587 818.858C963.153 818.461 965.771 818.288 968.371 818.246C976.358 818.128 984.345 818.119 992.332 818.069C994.14 818.056 995.944 818.056 997.748 818.052C997.869 818.052 997.989 818.064 998.131 818.178C997.955 818.221 997.782 818.275 997.606 818.309C995.578 818.706 993.55 819.107 991.518 819.495C991.186 819.559 990.846 819.58 990.506 819.584C982.752 819.639 974.993 819.664 967.239 819.753C964.85 819.782 962.464 819.96 960.114 820.47C956.613 821.234 953.862 823.125 951.632 825.831C949.69 828.19 948.166 830.815 946.56 833.39C945.337 835.353 944.11 837.311 942.887 839.269C942.81 839.396 942.745 839.531 942.771 839.746C943.137 839.43 943.507 839.122 943.865 838.793C947.498 835.416 951.636 832.917 956.527 831.723C958.977 831.123 961.461 830.836 963.967 831.161C966.791 831.529 969.319 832.554 971.325 834.686C973.357 836.847 974.58 839.409 975.428 842.178C975.699 843.068 975.893 843.98 976.1 844.887C976.238 845.482 976.505 845.601 977.026 845.221C977.917 844.575 978.804 843.921 979.682 843.262C982.016 841.519 984.341 839.768 986.679 838.029C990.11 835.475 993.554 832.93 996.99 830.381C998.928 828.941 1000.87 827.498 1002.81 826.059C1002.85 826.029 1002.9 826.016 1003.03 825.966C1003.04 826.164 1003.07 826.329 1003.05 826.489C1002.69 829.756 1002.31 833.019 1001.95 836.285C1001.59 839.497 1001.24 842.714 1000.91 845.926C1000.86 846.373 1000.71 846.495 1000.25 846.5C994.36 846.512 988.465 846.563 982.571 846.571C972.117 846.593 961.668 846.601 951.214 846.601C946.444 846.601 941.673 846.576 936.903 846.559C936.73 846.559 936.554 846.542 936.231 846.525L936.227 846.533Z" fill="#EB4A14"/>
<path d="M1003.43 818.275C1002.57 818.833 1001.71 819.386 1000.85 819.943C998.118 821.707 995.389 823.471 992.655 825.231C989.83 827.05 987.001 828.861 984.181 830.68C983.032 831.423 981.891 832.174 980.75 832.93C980.225 833.28 980.16 833.297 979.859 832.736C979.101 831.326 978.149 830.06 977.004 828.937C974.924 826.903 972.384 825.881 969.495 825.62C969.099 825.586 968.703 825.51 968.307 825.455V825.324C979.996 822.931 991.682 820.546 1003.37 818.157L1003.43 818.275Z" fill="#EB4A14"/>
<path d="M545.66 795.955C545.66 790.451 549.889 785.989 555.106 785.989H700.482C705.699 785.989 709.928 790.451 709.928 795.955V927.172C709.928 932.676 705.699 937.138 700.482 937.138H555.106C549.889 937.138 545.66 932.676 545.66 927.172V795.955Z" fill="white"/>
<path d="M570.088 898.253L567.502 888.666H569.297L570.564 893.833C570.757 894.669 570.937 895.506 571.098 896.349C571.272 895.506 571.458 894.669 571.664 893.833L572.983 888.666H574.778L576.084 893.833C576.29 894.663 576.477 895.493 576.651 896.316C576.818 895.493 576.998 894.663 577.191 893.833L578.458 888.666H580.26L577.667 898.253H575.743L574.276 892.707C574.135 892.179 574.013 891.607 573.878 890.97C573.742 891.607 573.62 892.179 573.479 892.707L572.018 898.253H570.088ZM581.148 898.253V888.666H584.886C586.996 888.666 588.315 889.85 588.315 891.729C588.315 893.035 587.633 893.994 586.494 894.457L588.495 898.253H586.623L584.822 894.766C584.809 894.766 584.796 894.766 584.777 894.766H582.846V898.253H581.148ZM582.846 893.363H584.802C585.935 893.363 586.642 892.733 586.642 891.729C586.642 890.732 585.935 890.108 584.789 890.108H582.846V893.363ZM588.926 898.253L592.349 888.666H594.485L597.895 898.253H596.023L595.257 895.962H591.539L590.754 898.253H588.926ZM592.015 894.566H594.794L594.344 893.215C594.061 892.334 593.777 891.414 593.417 890.204C593.057 891.414 592.767 892.334 592.478 893.215L592.015 894.566ZM598.777 898.253V888.666H602.437C604.541 888.666 605.86 889.85 605.86 891.729C605.86 893.614 604.509 894.804 602.405 894.804H600.475V898.253H598.777ZM600.475 893.35H602.341C603.486 893.35 604.187 892.733 604.187 891.729C604.187 890.732 603.486 890.121 602.341 890.121H600.475V893.35ZM568.216 914.253V904.666H574.662V906.14H569.914V908.758H574.322V910.2H569.914V914.253H568.216ZM577.455 904.666V914.253H575.756V904.666H577.455ZM579.05 914.253V904.666H580.749V912.78H585.195V914.253H579.05ZM586.295 914.253V904.666H588.74L590.606 909.704C590.786 910.238 591.095 911.197 591.32 911.943C591.545 911.197 591.854 910.238 592.027 909.704L593.861 904.666H596.319V914.253H594.646V909.363C594.646 908.688 594.678 907.626 594.704 906.642C594.363 907.723 594.035 908.778 593.829 909.363L592.002 914.253H590.612L588.772 909.363C588.573 908.803 588.251 907.813 587.916 906.777C587.936 907.723 587.968 908.72 587.968 909.363V914.253H586.295ZM601.382 914.407C599.008 914.407 597.586 913.178 597.586 911.126H599.253C599.266 912.284 600.063 912.973 601.395 912.973C602.592 912.973 603.383 912.432 603.383 911.589C603.383 910.914 602.881 910.521 601.601 910.225L600.572 909.994C598.654 909.556 597.773 908.713 597.773 907.369C597.773 905.657 599.182 904.512 601.299 904.512C603.441 904.512 604.773 905.67 604.831 907.575H603.216C603.145 906.564 602.412 905.953 601.292 905.953C600.231 905.953 599.478 906.5 599.478 907.285C599.478 907.928 599.973 908.289 601.221 908.578L602.193 908.803C604.181 909.247 605.075 910.077 605.075 911.486C605.075 913.275 603.653 914.407 601.382 914.407Z" fill="#1E1E1E"/>
<path d="M567.25 808.772V844.02C567.25 845.445 570.226 846.6 573.897 846.6C577.569 846.6 580.544 845.446 580.544 844.02V808.772H567.25Z" fill="black"/>
<path d="M601.887 837.548L595.414 844.02H580.545V808.773L573.898 806.192H601.887V837.548Z" fill="#EB4A14"/>
<path d="M601.885 837.548H595.414V844.019L601.885 837.548Z" fill="black"/>
<path d="M573.897 811.353C577.569 811.353 580.545 810.198 580.545 808.773C580.545 807.348 577.569 806.192 573.897 806.192C570.226 806.192 567.25 807.348 567.25 808.773C567.25 810.198 570.226 811.353 573.897 811.353Z" fill="white"/>
<path d="M504.165 761.312C499.111 761.312 495.534 757.586 495.534 751.869C495.534 746.115 499.111 742.402 504.165 742.402C508.296 742.402 511.443 744.972 512.058 748.98H508.751C508.259 746.644 506.538 745.316 504.189 745.316C500.833 745.316 498.804 747.91 498.804 751.869C498.804 755.804 500.82 758.398 504.189 758.398C506.525 758.398 508.247 757.082 508.763 754.758H512.058C511.443 758.754 508.296 761.312 504.165 761.312ZM520.074 761.312C516.251 761.312 513.669 758.57 513.669 754.537C513.669 750.504 516.251 747.738 520.074 747.738C523.898 747.738 526.48 750.504 526.48 754.537C526.48 758.57 523.898 761.312 520.074 761.312ZM520.074 758.717C522.066 758.717 523.332 757.119 523.332 754.537C523.332 751.943 522.054 750.332 520.074 750.332C518.083 750.332 516.804 751.931 516.804 754.537C516.804 757.131 518.07 758.717 520.074 758.717ZM528.632 761.017V748.033H531.632V750.283C532.418 748.611 533.906 747.775 535.541 747.775C537.3 747.775 538.738 748.746 539.279 750.234C539.968 748.734 541.517 747.775 543.41 747.775C545.869 747.775 547.762 749.398 547.762 752.447V761.017H544.652V752.89C544.652 751.168 543.57 750.406 542.242 750.406C540.668 750.406 539.697 751.5 539.697 753.049V761.017H536.685V752.742C536.685 751.328 535.701 750.406 534.324 750.406C532.923 750.406 531.73 751.414 531.73 753.271V761.017H528.632ZM550.517 766.156V748.033H553.566V749.841H553.603C554.414 748.463 555.853 747.775 557.537 747.775C560.881 747.775 563.143 750.517 563.143 754.513C563.143 758.558 560.918 761.275 557.525 761.275C555.828 761.275 554.463 760.537 553.652 759.062H553.615V766.156H550.517ZM556.799 758.681C558.717 758.681 560.008 757.205 560.008 754.513C560.008 751.832 558.717 750.345 556.799 750.345C554.771 750.345 553.443 751.992 553.443 754.513C553.443 757.045 554.771 758.681 556.799 758.681ZM568.393 742.697V761.017H565.295V742.697H568.393ZM576.877 761.312C572.979 761.312 570.545 758.472 570.545 754.537C570.545 750.591 573.115 747.738 576.754 747.738C580.492 747.738 582.975 750.504 582.975 754.488V755.336H573.582C573.656 757.451 574.861 758.865 576.951 758.865C578.512 758.865 579.557 758.115 579.914 757.008H582.815C582.324 759.554 579.914 761.312 576.877 761.312ZM573.606 753.197H580C579.803 751.34 578.598 750.197 576.803 750.197C575.008 750.197 573.815 751.34 573.606 753.197ZM591.938 748.033V750.529H589.295V757.291C589.295 758.213 589.602 758.521 590.61 758.521H591.938V761.017H590.069C587.426 761.017 586.184 759.972 586.184 757.746V750.529H583.922V748.033H586.184V744.492H589.295V748.033H591.938ZM599.426 761.312C595.528 761.312 593.094 758.472 593.094 754.537C593.094 750.591 595.664 747.738 599.303 747.738C603.04 747.738 605.524 750.504 605.524 754.488V755.336H596.131C596.204 757.451 597.409 758.865 599.5 758.865C601.061 758.865 602.106 758.115 602.463 757.008H605.364C604.872 759.554 602.463 761.312 599.426 761.312ZM596.155 753.197H602.549C602.352 751.34 601.147 750.197 599.352 750.197C597.557 750.197 596.364 751.34 596.155 753.197ZM613.577 766.156V763.635H615.114C615.95 763.635 616.344 763.217 616.712 762.197L617.192 760.943L612.188 748.033H615.471L617.856 754.795C618.176 755.754 618.495 756.713 618.79 757.672C619.085 756.713 619.393 755.754 619.725 754.795L622.098 748.033H625.343L619.54 763.156C618.766 765.185 617.487 766.156 615.606 766.156H613.577ZM632.278 761.312C628.454 761.312 625.872 758.57 625.872 754.537C625.872 750.504 628.454 747.738 632.278 747.738C636.102 747.738 638.683 750.504 638.683 754.537C638.683 758.57 636.102 761.312 632.278 761.312ZM632.278 758.717C634.27 758.717 635.536 757.119 635.536 754.537C635.536 751.943 634.257 750.332 632.278 750.332C630.286 750.332 629.007 751.931 629.007 754.537C629.007 757.131 630.274 758.717 632.278 758.717ZM645.458 761.275C642.741 761.275 640.835 759.48 640.835 756.148V748.033H643.933V755.656C643.933 757.562 644.892 758.558 646.552 758.558C648.187 758.558 649.392 757.586 649.392 755.373V748.033H652.503V761.017H649.454V759.025C648.569 760.488 647.253 761.275 645.458 761.275ZM655.269 761.017V748.033H658.257V750.185H658.294C658.773 748.697 659.769 747.91 661.441 747.91C661.859 747.91 662.204 747.935 662.45 747.959V750.713C662.216 750.677 661.601 750.615 660.986 750.615C659.511 750.615 658.368 751.636 658.368 753.664V761.017H655.269ZM675.691 761.312C671.892 761.312 669.347 758.545 669.347 754.537C669.347 750.529 671.892 747.738 675.691 747.738C678.949 747.738 681.31 749.791 681.58 752.681H678.544C678.31 751.291 677.339 750.32 675.728 750.32C673.699 750.32 672.482 751.968 672.482 754.537C672.482 757.095 673.687 758.73 675.728 758.73C677.351 758.73 678.224 757.795 678.519 756.357H681.58C681.359 759.197 678.974 761.312 675.691 761.312ZM687.802 761.226C685.22 761.226 683.314 759.922 683.314 757.328C683.314 754.377 685.736 753.652 688.416 753.369C690.826 753.099 691.65 753.062 691.65 752.177V752.078C691.65 750.972 690.765 750.185 689.277 750.185C687.765 750.185 686.757 750.972 686.671 752.066H683.683C683.83 749.484 685.945 747.775 689.339 747.775C692.72 747.775 694.724 749.459 694.724 752.164V761.017H691.675V759.185H691.625C691.011 760.34 689.916 761.226 687.802 761.226ZM688.564 758.926C690.593 758.926 691.662 757.722 691.662 756.209V754.808C691.281 755.054 690.076 755.25 688.798 755.447C687.47 755.644 686.339 756.123 686.339 757.304C686.339 758.324 687.212 758.926 688.564 758.926ZM697.465 761.017V748.033H700.453V750.185H700.49C700.97 748.697 701.965 747.91 703.638 747.91C704.056 747.91 704.4 747.935 704.646 747.959V750.713C704.412 750.677 703.797 750.615 703.183 750.615C701.707 750.615 700.564 751.636 700.564 753.664V761.017H697.465ZM712.146 766.156V748.033H715.195V749.841H715.232C716.043 748.463 717.482 747.775 719.166 747.775C722.51 747.775 724.773 750.517 724.773 754.513C724.773 758.558 722.547 761.275 719.154 761.275C717.457 761.275 716.092 760.537 715.281 759.062H715.244V766.156H712.146ZM718.428 758.681C720.346 758.681 721.637 757.205 721.637 754.513C721.637 751.832 720.346 750.345 718.428 750.345C716.4 750.345 715.072 751.992 715.072 754.513C715.072 757.045 716.4 758.681 718.428 758.681ZM726.924 761.017V748.033H729.912V750.185H729.949C730.428 748.697 731.424 747.91 733.096 747.91C733.514 747.91 733.858 747.935 734.104 747.959V750.713C733.871 750.677 733.256 750.615 732.641 750.615C731.166 750.615 730.022 751.636 730.022 753.664V761.017H726.924ZM741.53 761.312C737.707 761.312 735.125 758.57 735.125 754.537C735.125 750.504 737.707 747.738 741.53 747.738C745.354 747.738 747.936 750.504 747.936 754.537C747.936 758.57 745.354 761.312 741.53 761.312ZM741.53 758.717C743.522 758.717 744.789 757.119 744.789 754.537C744.789 751.943 743.51 750.332 741.53 750.332C739.539 750.332 738.26 751.931 738.26 754.537C738.26 757.131 739.526 758.717 741.53 758.717ZM756.936 748.033V750.529H754.293V757.291C754.293 758.213 754.6 758.521 755.608 758.521H756.936V761.017H755.067C752.424 761.017 751.182 759.972 751.182 757.746V750.529H748.92V748.033H751.182V744.492H754.293V748.033H756.936ZM764.424 761.312C760.526 761.312 758.092 758.472 758.092 754.537C758.092 750.591 760.661 747.738 764.301 747.738C768.038 747.738 770.522 750.504 770.522 754.488V755.336H761.129C761.202 757.451 762.407 758.865 764.497 758.865C766.059 758.865 767.104 758.115 767.46 757.008H770.362C769.87 759.554 767.46 761.312 764.424 761.312ZM761.153 753.197H767.547C767.35 751.34 766.145 750.197 764.35 750.197C762.555 750.197 761.362 751.34 761.153 753.197ZM778.378 761.312C774.579 761.312 772.034 758.545 772.034 754.537C772.034 750.529 774.579 747.738 778.378 747.738C781.636 747.738 783.997 749.791 784.268 752.681H781.231C780.997 751.291 780.026 750.32 778.415 750.32C776.387 750.32 775.169 751.968 775.169 754.537C775.169 757.095 776.374 758.73 778.415 758.73C780.038 758.73 780.911 757.795 781.206 756.357H784.268C784.046 759.197 781.661 761.312 778.378 761.312ZM793.206 748.033V750.529H790.563V757.291C790.563 758.213 790.87 758.521 791.878 758.521H793.206V761.017H791.337C788.694 761.017 787.452 759.972 787.452 757.746V750.529H785.19V748.033H787.452V744.492H790.563V748.033H793.206ZM795.161 761.017V748.033H798.259V761.017H795.161ZM796.71 746.103C795.653 746.103 794.854 745.341 794.854 744.332C794.854 743.337 795.653 742.574 796.71 742.574C797.767 742.574 798.567 743.337 798.567 744.332C798.567 745.341 797.767 746.103 796.71 746.103ZM806.817 761.312C802.993 761.312 800.411 758.57 800.411 754.537C800.411 750.504 802.993 747.738 806.817 747.738C810.64 747.738 813.222 750.504 813.222 754.537C813.222 758.57 810.64 761.312 806.817 761.312ZM806.817 758.717C808.808 758.717 810.075 757.119 810.075 754.537C810.075 751.943 808.796 750.332 806.817 750.332C804.825 750.332 803.546 751.931 803.546 754.537C803.546 757.131 804.812 758.717 806.817 758.717ZM818.472 753.677V761.017H815.374V748.033H818.423V750.025C819.308 748.562 820.624 747.775 822.406 747.775C825.124 747.775 827.042 749.57 827.042 752.902V761.017H823.931V753.394C823.931 751.488 822.972 750.492 821.312 750.492C819.689 750.492 818.472 751.463 818.472 753.677ZM838.365 761.017L834.357 748.033H837.615L838.955 752.963C839.361 754.513 839.73 756.172 840.123 757.783C840.529 756.172 840.923 754.513 841.353 752.963L842.73 748.033H845.595L846.959 752.963C847.377 754.5 847.771 756.148 848.177 757.758C848.545 756.148 848.927 754.5 849.332 752.963L850.673 748.033H853.968L849.947 761.017H846.726L845.152 755.607C844.808 754.402 844.488 753.136 844.156 751.869C843.837 753.136 843.517 754.402 843.16 755.607L841.562 761.017H838.365ZM855.578 761.017V748.033H858.676V761.017H855.578ZM857.127 746.103C856.07 746.103 855.271 745.341 855.271 744.332C855.271 743.337 856.07 742.574 857.127 742.574C858.185 742.574 858.984 743.337 858.984 744.332C858.984 745.341 858.185 746.103 857.127 746.103ZM868.476 748.033V750.529H865.832V757.291C865.832 758.213 866.14 758.521 867.148 758.521H868.476V761.017H866.607C863.963 761.017 862.722 759.972 862.722 757.746V750.529H860.459V748.033H862.722V744.492H865.832V748.033H868.476ZM873.529 753.677V761.017H870.43V742.697H873.529V749.939C874.414 748.525 875.717 747.775 877.463 747.775C880.18 747.775 882.098 749.57 882.098 752.902V761.017H878.988V753.394C878.988 751.488 878.029 750.492 876.369 750.492C874.746 750.492 873.529 751.463 873.529 753.677ZM890.717 761.017V742.697H894.221L900.651 752.914C901.082 753.603 901.893 755.004 902.619 756.308C902.569 754.931 902.545 753.406 902.545 752.681V742.697H905.803V761.017H902.287L896.483 751.82C895.967 750.996 894.996 749.373 893.877 747.394C893.951 749.435 893.963 751.009 893.963 751.808V761.017H890.717ZM914.52 761.312C910.696 761.312 908.114 758.57 908.114 754.537C908.114 750.504 910.696 747.738 914.52 747.738C918.344 747.738 920.926 750.504 920.926 754.537C920.926 758.57 918.344 761.312 914.52 761.312ZM914.52 758.717C916.512 758.717 917.778 757.119 917.778 754.537C917.778 751.943 916.499 750.332 914.52 750.332C912.528 750.332 911.25 751.931 911.25 754.537C911.25 757.131 912.516 758.717 914.52 758.717ZM923.077 761.017V748.033H926.065V750.185H926.102C926.581 748.697 927.577 747.91 929.249 747.91C929.667 747.91 930.012 747.935 930.258 747.959V750.713C930.024 750.677 929.409 750.615 928.794 750.615C927.319 750.615 926.176 751.636 926.176 753.664V761.017H923.077ZM936.897 761.275C933.503 761.275 931.278 758.558 931.278 754.513C931.278 750.517 933.54 747.775 936.872 747.775C938.557 747.775 939.946 748.451 940.782 749.877H940.807V742.697H943.905V761.017H940.856V759.037H940.831C940.02 760.537 938.593 761.275 936.897 761.275ZM937.622 758.681C939.651 758.681 940.979 757.045 940.979 754.513C940.979 751.992 939.651 750.345 937.622 750.345C935.704 750.345 934.413 751.832 934.413 754.513C934.413 757.205 935.704 758.681 937.622 758.681Z" fill="white"/>
</g>
<defs>
<linearGradient id="paint0_linear_272_793" x1="782.518" y1="268.367" x2="503.109" y2="268.367" gradientUnits="userSpaceOnUse">
<stop stop-color="#EB4A14"/>
<stop offset="1" stop-color="#852A0B" stop-opacity="0.3"/>
</linearGradient>
<linearGradient id="paint1_linear_272_793" x1="987.955" y1="268.393" x2="810.254" y2="268.393" gradientUnits="userSpaceOnUse">
<stop stop-color="#EB4A14"/>
<stop offset="1" stop-color="#852A0B" stop-opacity="0.3"/>
</linearGradient>
<linearGradient id="paint2_linear_272_793" x1="1251.15" y1="268.393" x2="1011.6" y2="268.393" gradientUnits="userSpaceOnUse">
<stop stop-color="#EB4A14"/>
<stop offset="1" stop-color="#852A0B" stop-opacity="0.3"/>
</linearGradient>
<linearGradient id="paint3_linear_272_793" x1="487.013" y1="283.242" x2="220.598" y2="283.242" gradientUnits="userSpaceOnUse">
<stop stop-color="#EB4A14"/>
<stop offset="1" stop-color="#852A0B" stop-opacity="0.3"/>
</linearGradient>
<linearGradient id="paint4_linear_272_793" x1="299.532" y1="178.891" x2="189.145" y2="178.891" gradientUnits="userSpaceOnUse">
<stop stop-color="#EB4A14"/>
<stop offset="1" stop-color="#852A0B" stop-opacity="0.3"/>
</linearGradient>
<linearGradient id="paint5_linear_272_793" x1="1274.59" y1="204.021" x2="165.703" y2="204.021" gradientUnits="userSpaceOnUse">
<stop stop-color="#D9D9D9" stop-opacity="0"/>
<stop offset="1" stop-color="#191919"/>
</linearGradient>
<clipPath id="clip0_272_793">
<rect width="1440" height="1024" fill="white" transform="translate(0.148438 0.920898)"/>
</clipPath>
</defs>
</svg>
